<svg width="112" height="74" viewBox="0 0 112 74" fill="none" xmlns="http://www.w3.org/2000/svg">
<rect x="0.5" y="0.5" width="111" height="73" rx="19.5" fill="#0E0E0E"/>
<rect x="0.5" y="0.5" width="111" height="73" rx="19.5" stroke="url(#paint0_linear_895_1487)"/>
<path d="M48.8366 47.3878C47.1993 47.3878 45.794 46.9735 44.6207 46.1449C43.4541 45.3097 42.5559 44.1065 41.9261 42.5355C41.303 40.9579 40.9915 39.0587 40.9915 36.8381C40.9981 34.6174 41.313 32.7282 41.9361 31.1705C42.5658 29.6061 43.464 28.4129 44.6307 27.5909C45.804 26.7689 47.206 26.358 48.8366 26.358C50.4673 26.358 51.8693 26.7689 53.0426 27.5909C54.2159 28.4129 55.1141 29.6061 55.7372 31.1705C56.367 32.7348 56.6818 34.6241 56.6818 36.8381C56.6818 39.0653 56.367 40.9678 55.7372 42.5455C55.1141 44.1165 54.2159 45.3163 53.0426 46.1449C51.8759 46.9735 50.474 47.3878 48.8366 47.3878ZM48.8366 44.2756C50.1094 44.2756 51.1136 43.6491 51.8494 42.3963C52.5919 41.1368 52.9631 39.2841 52.9631 36.8381C52.9631 35.2206 52.794 33.8617 52.456 32.7614C52.1179 31.661 51.6406 30.8324 51.0241 30.2756C50.4077 29.7121 49.6785 29.4304 48.8366 29.4304C47.5705 29.4304 46.5696 30.0601 45.8338 31.3196C45.098 32.5724 44.7268 34.4119 44.7202 36.8381C44.7135 38.4621 44.8759 39.8277 45.2074 40.9347C45.5455 42.0417 46.0227 42.8769 46.6392 43.4403C47.2557 43.9972 47.9882 44.2756 48.8366 44.2756ZM68.2681 26.6364V47H64.5792V30.2259H64.4599L59.6971 33.2685V29.8878L64.7582 26.6364H68.2681Z" fill="white"/>
<defs>
<linearGradient id="paint0_linear_895_1487" x1="6.86649" y1="3.93916" x2="126.277" y2="110.082" gradientUnits="userSpaceOnUse">
<stop stop-color="#EFE3E6"/>
<stop offset="0.662143" stop-color="#DF496A"/>
<stop offset="1" stop-color="#BF435E"/>
</linearGradient>
</defs>
</svg>
