<svg width="53" height="56" viewBox="0 0 53 56" fill="none" xmlns="http://www.w3.org/2000/svg">
<rect x="0.5" y="0.5" width="52" height="55" rx="19.5" fill="#0E0E0E"/>
<rect x="0.5" y="0.5" width="52" height="55" rx="19.5" stroke="url(#paint0_linear_960_2891)"/>
<path d="M22.3352 34.2216C21.3996 34.2216 20.5966 33.9848 19.9261 33.5114C19.2595 33.0341 18.7462 32.3466 18.3864 31.4489C18.0303 30.5473 17.8523 29.4621 17.8523 28.1932C17.8561 26.9242 18.036 25.8447 18.392 24.9545C18.7519 24.0606 19.2652 23.3788 19.9318 22.9091C20.6023 22.4394 21.4034 22.2045 22.3352 22.2045C23.267 22.2045 24.0682 22.4394 24.7386 22.9091C25.4091 23.3788 25.9223 24.0606 26.2784 24.9545C26.6383 25.8485 26.8182 26.928 26.8182 28.1932C26.8182 29.4659 26.6383 30.553 26.2784 31.4545C25.9223 32.3523 25.4091 33.0379 24.7386 33.5114C24.072 33.9848 23.2708 34.2216 22.3352 34.2216ZM22.3352 32.4432C23.0625 32.4432 23.6364 32.0852 24.0568 31.3693C24.4811 30.6496 24.6932 29.5909 24.6932 28.1932C24.6932 27.2689 24.5966 26.4924 24.4034 25.8636C24.2102 25.2348 23.9375 24.7614 23.5852 24.4432C23.233 24.1212 22.8163 23.9602 22.3352 23.9602C21.6117 23.9602 21.0398 24.3201 20.6193 25.0398C20.1989 25.7557 19.9867 26.8068 19.983 28.1932C19.9792 29.1212 20.072 29.9015 20.2614 30.5341C20.4545 31.1667 20.7273 31.6439 21.0795 31.9659C21.4318 32.2841 21.8504 32.4432 22.3352 32.4432ZM33.4389 22.3636V34H31.331V24.4148H31.2628L28.5412 26.1534V24.2216L31.4332 22.3636H33.4389Z" fill="white"/>
<defs>
<linearGradient id="paint0_linear_960_2891" x1="3.24932" y1="2.98099" x2="80.5275" y2="45.9353" gradientUnits="userSpaceOnUse">
<stop stop-color="#EFE3E6"/>
<stop offset="0.662143" stop-color="#DF496A"/>
<stop offset="1" stop-color="#BF435E"/>
</linearGradient>
</defs>
</svg>
