<svg width="112" height="74" viewBox="0 0 112 74" fill="none" xmlns="http://www.w3.org/2000/svg">
<rect x="0.5" y="0.5" width="111" height="73" rx="19.5" fill="#0E0E0E"/>
<rect x="0.5" y="0.5" width="111" height="73" rx="19.5" stroke="url(#paint0_linear_895_1489)"/>
<path d="M46.8366 47.3878C45.1993 47.3878 43.794 46.9735 42.6207 46.1449C41.4541 45.3097 40.5559 44.1065 39.9261 42.5355C39.303 40.9579 38.9915 39.0587 38.9915 36.8381C38.9981 34.6174 39.313 32.7282 39.9361 31.1705C40.5658 29.6061 41.464 28.4129 42.6307 27.5909C43.804 26.7689 45.206 26.358 46.8366 26.358C48.4673 26.358 49.8693 26.7689 51.0426 27.5909C52.2159 28.4129 53.1141 29.6061 53.7372 31.1705C54.367 32.7348 54.6818 34.6241 54.6818 36.8381C54.6818 39.0653 54.367 40.9678 53.7372 42.5455C53.1141 44.1165 52.2159 45.3163 51.0426 46.1449C49.8759 46.9735 48.474 47.3878 46.8366 47.3878ZM46.8366 44.2756C48.1094 44.2756 49.1136 43.6491 49.8494 42.3963C50.5919 41.1368 50.9631 39.2841 50.9631 36.8381C50.9631 35.2206 50.794 33.8617 50.456 32.7614C50.1179 31.661 49.6406 30.8324 49.0241 30.2756C48.4077 29.7121 47.6785 29.4304 46.8366 29.4304C45.5705 29.4304 44.5696 30.0601 43.8338 31.3196C43.098 32.5724 42.7268 34.4119 42.7202 36.8381C42.7135 38.4621 42.8759 39.8277 43.2074 40.9347C43.5455 42.0417 44.0227 42.8769 44.6392 43.4403C45.2557 43.9972 45.9882 44.2756 46.8366 44.2756ZM57.9854 47V44.3352L65.055 37.4048C65.7312 36.7221 66.2946 36.1155 66.7454 35.5852C67.1961 35.0549 67.5342 34.5412 67.7596 34.044C67.985 33.5469 68.0977 33.0166 68.0977 32.4531C68.0977 31.8101 67.9518 31.2599 67.6602 30.8026C67.3685 30.3385 66.9674 29.9806 66.457 29.7287C65.9466 29.4768 65.3666 29.3509 64.717 29.3509C64.0475 29.3509 63.4608 29.4901 62.957 29.7685C62.4532 30.0402 62.0621 30.428 61.7837 30.9318C61.512 31.4356 61.3761 32.0355 61.3761 32.7315H57.8661C57.8661 31.4389 58.1611 30.3153 58.7511 29.3608C59.341 28.4062 60.1531 27.6671 61.1871 27.1435C62.2279 26.6198 63.421 26.358 64.7667 26.358C66.1322 26.358 67.332 26.6132 68.3661 27.1236C69.4002 27.634 70.2023 28.3333 70.7724 29.2216C71.3491 30.1098 71.6374 31.1241 71.6374 32.2642C71.6374 33.0265 71.4916 33.7756 71.1999 34.5114C70.9083 35.2472 70.3945 36.0625 69.6587 36.9574C68.9296 37.8523 67.9054 38.9361 66.5863 40.2088L63.0763 43.7784V43.9176H71.9457V47H57.9854Z" fill="white"/>
<defs>
<linearGradient id="paint0_linear_895_1489" x1="6.86649" y1="3.93916" x2="126.277" y2="110.082" gradientUnits="userSpaceOnUse">
<stop stop-color="#EFE3E6"/>
<stop offset="0.662143" stop-color="#DF496A"/>
<stop offset="1" stop-color="#BF435E"/>
</linearGradient>
</defs>
</svg>
