<svg width="53" height="56" viewBox="0 0 53 56" fill="none" xmlns="http://www.w3.org/2000/svg">
<rect x="0.5" y="0.5" width="52" height="55" rx="19.5" fill="#0E0E0E"/>
<rect x="0.5" y="0.5" width="52" height="55" rx="19.5" stroke="url(#paint0_linear_992_2994)"/>
<path d="M21.3352 34.2216C20.3996 34.2216 19.5966 33.9848 18.9261 33.5114C18.2595 33.0341 17.7462 32.3466 17.3864 31.4489C17.0303 30.5473 16.8523 29.4621 16.8523 28.1932C16.8561 26.9242 17.036 25.8447 17.392 24.9545C17.7519 24.0606 18.2652 23.3788 18.9318 22.9091C19.6023 22.4394 20.4034 22.2045 21.3352 22.2045C22.267 22.2045 23.0682 22.4394 23.7386 22.9091C24.4091 23.3788 24.9223 24.0606 25.2784 24.9545C25.6383 25.8485 25.8182 26.928 25.8182 28.1932C25.8182 29.4659 25.6383 30.553 25.2784 31.4545C24.9223 32.3523 24.4091 33.0379 23.7386 33.5114C23.072 33.9848 22.2708 34.2216 21.3352 34.2216ZM21.3352 32.4432C22.0625 32.4432 22.6364 32.0852 23.0568 31.3693C23.4811 30.6496 23.6932 29.5909 23.6932 28.1932C23.6932 27.2689 23.5966 26.4924 23.4034 25.8636C23.2102 25.2348 22.9375 24.7614 22.5852 24.4432C22.233 24.1212 21.8163 23.9602 21.3352 23.9602C20.6117 23.9602 20.0398 24.3201 19.6193 25.0398C19.1989 25.7557 18.9867 26.8068 18.983 28.1932C18.9792 29.1212 19.072 29.9015 19.2614 30.5341C19.4545 31.1667 19.7273 31.6439 20.0795 31.9659C20.4318 32.2841 20.8504 32.4432 21.3352 32.4432ZM27.706 34V32.4773L31.7457 28.517C32.1321 28.1269 32.4541 27.7803 32.7116 27.4773C32.9692 27.1742 33.1624 26.8807 33.2912 26.5966C33.42 26.3125 33.4844 26.0095 33.4844 25.6875C33.4844 25.3201 33.401 25.0057 33.2344 24.7443C33.0677 24.4792 32.8385 24.2746 32.5469 24.1307C32.2552 23.9867 31.9238 23.9148 31.5526 23.9148C31.17 23.9148 30.8348 23.9943 30.5469 24.1534C30.259 24.3087 30.0355 24.5303 29.8764 24.8182C29.7211 25.1061 29.6435 25.4489 29.6435 25.8466H27.6378C27.6378 25.108 27.8063 24.4659 28.1435 23.9205C28.4806 23.375 28.9446 22.9527 29.5355 22.6534C30.1302 22.3542 30.812 22.2045 31.581 22.2045C32.3613 22.2045 33.0469 22.3504 33.6378 22.642C34.2287 22.9337 34.687 23.3333 35.0128 23.8409C35.3423 24.3485 35.5071 24.928 35.5071 25.5795C35.5071 26.0152 35.4238 26.4432 35.2571 26.8636C35.0904 27.2841 34.7969 27.75 34.3764 28.2614C33.9598 28.7727 33.3745 29.392 32.6207 30.1193L30.6151 32.1591V32.2386H35.6832V34H27.706Z" fill="white"/>
<defs>
<linearGradient id="paint0_linear_992_2994" x1="3.24932" y1="2.98099" x2="80.5275" y2="45.9353" gradientUnits="userSpaceOnUse">
<stop stop-color="#EFE3E6"/>
<stop offset="0.662143" stop-color="#DF496A"/>
<stop offset="1" stop-color="#BF435E"/>
</linearGradient>
</defs>
</svg>
