<svg width="112" height="74" viewBox="0 0 112 74" fill="none" xmlns="http://www.w3.org/2000/svg">
<rect x="0.5" y="0.5" width="111" height="73" rx="19.5" fill="#0E0E0E"/>
<rect x="0.5" y="0.5" width="111" height="73" rx="19.5" stroke="url(#paint0_linear_895_1497)"/>
<path d="M46.8366 47.3878C45.1993 47.3878 43.794 46.9735 42.6207 46.1449C41.4541 45.3097 40.5559 44.1065 39.9261 42.5355C39.303 40.9579 38.9915 39.0587 38.9915 36.8381C38.9981 34.6174 39.313 32.7282 39.9361 31.1705C40.5658 29.6061 41.464 28.4129 42.6307 27.5909C43.804 26.7689 45.206 26.358 46.8366 26.358C48.4673 26.358 49.8693 26.7689 51.0426 27.5909C52.2159 28.4129 53.1141 29.6061 53.7372 31.1705C54.367 32.7348 54.6818 34.6241 54.6818 36.8381C54.6818 39.0653 54.367 40.9678 53.7372 42.5455C53.1141 44.1165 52.2159 45.3163 51.0426 46.1449C49.8759 46.9735 48.474 47.3878 46.8366 47.3878ZM46.8366 44.2756C48.1094 44.2756 49.1136 43.6491 49.8494 42.3963C50.5919 41.1368 50.9631 39.2841 50.9631 36.8381C50.9631 35.2206 50.794 33.8617 50.456 32.7614C50.1179 31.661 49.6406 30.8324 49.0241 30.2756C48.4077 29.7121 47.6785 29.4304 46.8366 29.4304C45.5705 29.4304 44.5696 30.0601 43.8338 31.3196C43.098 32.5724 42.7268 34.4119 42.7202 36.8381C42.7135 38.4621 42.8759 39.8277 43.2074 40.9347C43.5455 42.0417 44.0227 42.8769 44.6392 43.4403C45.2557 43.9972 45.9882 44.2756 46.8366 44.2756ZM65.2937 47.2784C63.8619 47.2784 62.5891 47.0331 61.4755 46.5426C60.3685 46.0521 59.4935 45.3693 58.8505 44.4943C58.2075 43.6193 57.8661 42.6084 57.8263 41.4616H61.565C61.5981 42.0118 61.7804 42.4924 62.1119 42.9034C62.4433 43.3078 62.8841 43.6226 63.4343 43.848C63.9845 44.0734 64.601 44.1861 65.2837 44.1861C66.0129 44.1861 66.6592 44.0601 67.2227 43.8082C67.7861 43.5497 68.2269 43.1918 68.5451 42.7344C68.8633 42.277 69.0191 41.75 69.0124 41.1534C69.0191 40.5369 68.86 39.9934 68.5352 39.5227C68.2103 39.0521 67.7397 38.6842 67.1232 38.419C66.5134 38.1539 65.7776 38.0213 64.9158 38.0213H63.1161V35.1776H64.9158C65.6251 35.1776 66.2449 35.0549 66.7752 34.8097C67.3121 34.5644 67.7331 34.2197 68.038 33.7756C68.3429 33.3248 68.4921 32.8045 68.4854 32.2145C68.4921 31.6378 68.3628 31.1373 68.0977 30.7131C67.8391 30.2822 67.4712 29.9474 66.994 29.7088C66.5233 29.4702 65.9698 29.3509 65.3335 29.3509C64.7103 29.3509 64.1336 29.4635 63.6033 29.6889C63.073 29.9143 62.6455 30.2358 62.3207 30.6534C61.9959 31.0644 61.8235 31.5549 61.8036 32.125H58.2539C58.2804 30.9848 58.6085 29.9839 59.2383 29.1222C59.8746 28.2538 60.7231 27.5777 61.7837 27.0938C62.8443 26.6032 64.0342 26.358 65.3533 26.358C66.7122 26.358 67.8922 26.6132 68.8931 27.1236C69.9007 27.6274 70.6796 28.3068 71.2298 29.1619C71.7799 30.017 72.055 30.9616 72.055 31.9957C72.0617 33.1425 71.7236 34.1037 71.0408 34.8793C70.3647 35.6548 69.4764 36.1619 68.3761 36.4006V36.5597C69.8079 36.7585 70.9049 37.2888 71.6673 38.1506C72.4362 39.0057 72.8174 40.0696 72.8107 41.3423C72.8107 42.4825 72.4859 43.5033 71.8363 44.4048C71.1933 45.2997 70.305 46.0024 69.1715 46.5128C68.0446 47.0232 66.752 47.2784 65.2937 47.2784Z" fill="white"/>
<defs>
<linearGradient id="paint0_linear_895_1497" x1="6.86649" y1="3.93916" x2="126.277" y2="110.082" gradientUnits="userSpaceOnUse">
<stop stop-color="#EFE3E6"/>
<stop offset="0.662143" stop-color="#DF496A"/>
<stop offset="1" stop-color="#BF435E"/>
</linearGradient>
</defs>
</svg>
