<svg width="53" height="56" viewBox="0 0 53 56" fill="none" xmlns="http://www.w3.org/2000/svg">
<rect x="0.5" y="0.5" width="52" height="55" rx="19.5" fill="#0E0E0E"/>
<rect x="0.5" y="0.5" width="52" height="55" rx="19.5" stroke="url(#paint0_linear_992_3003)"/>
<path d="M20.8352 34.2216C19.8996 34.2216 19.0966 33.9848 18.4261 33.5114C17.7595 33.0341 17.2462 32.3466 16.8864 31.4489C16.5303 30.5473 16.3523 29.4621 16.3523 28.1932C16.3561 26.9242 16.536 25.8447 16.892 24.9545C17.2519 24.0606 17.7652 23.3788 18.4318 22.9091C19.1023 22.4394 19.9034 22.2045 20.8352 22.2045C21.767 22.2045 22.5682 22.4394 23.2386 22.9091C23.9091 23.3788 24.4223 24.0606 24.7784 24.9545C25.1383 25.8485 25.3182 26.928 25.3182 28.1932C25.3182 29.4659 25.1383 30.553 24.7784 31.4545C24.4223 32.3523 23.9091 33.0379 23.2386 33.5114C22.572 33.9848 21.7708 34.2216 20.8352 34.2216ZM20.8352 32.4432C21.5625 32.4432 22.1364 32.0852 22.5568 31.3693C22.9811 30.6496 23.1932 29.5909 23.1932 28.1932C23.1932 27.2689 23.0966 26.4924 22.9034 25.8636C22.7102 25.2348 22.4375 24.7614 22.0852 24.4432C21.733 24.1212 21.3163 23.9602 20.8352 23.9602C20.1117 23.9602 19.5398 24.3201 19.1193 25.0398C18.6989 25.7557 18.4867 26.8068 18.483 28.1932C18.4792 29.1212 18.572 29.9015 18.7614 30.5341C18.9545 31.1667 19.2273 31.6439 19.5795 31.9659C19.9318 32.2841 20.3504 32.4432 20.8352 32.4432ZM31.3821 34.1591C30.5639 34.1591 29.8366 34.0189 29.2003 33.7386C28.5677 33.4583 28.0677 33.0682 27.7003 32.5682C27.3329 32.0682 27.1378 31.4905 27.1151 30.8352H29.2514C29.2704 31.1496 29.3745 31.4242 29.5639 31.6591C29.7533 31.8902 30.0052 32.0701 30.3196 32.1989C30.634 32.3277 30.9863 32.392 31.3764 32.392C31.7931 32.392 32.1624 32.3201 32.4844 32.1761C32.8063 32.0284 33.0582 31.8239 33.2401 31.5625C33.4219 31.3011 33.5109 31 33.5071 30.6591C33.5109 30.3068 33.42 29.9962 33.2344 29.7273C33.0488 29.4583 32.7798 29.2481 32.4276 29.0966C32.0791 28.9451 31.6586 28.8693 31.1662 28.8693H30.1378V27.2443H31.1662C31.5715 27.2443 31.9257 27.1742 32.2287 27.0341C32.5355 26.8939 32.776 26.697 32.9503 26.4432C33.1245 26.1856 33.2098 25.8883 33.206 25.5511C33.2098 25.2216 33.1359 24.9356 32.9844 24.6932C32.8366 24.447 32.6264 24.2557 32.3537 24.1193C32.0848 23.983 31.7685 23.9148 31.4048 23.9148C31.0488 23.9148 30.7192 23.9792 30.4162 24.108C30.1132 24.2367 29.8688 24.4205 29.6832 24.6591C29.4976 24.8939 29.3991 25.1742 29.3878 25.5H27.3594C27.3745 24.8485 27.562 24.2765 27.9219 23.7841C28.2855 23.2879 28.7704 22.9015 29.3764 22.625C29.9825 22.3447 30.6624 22.2045 31.4162 22.2045C32.1927 22.2045 32.867 22.3504 33.4389 22.642C34.0147 22.9299 34.4598 23.3182 34.7741 23.8068C35.0885 24.2955 35.2457 24.8352 35.2457 25.4261C35.2495 26.0814 35.0563 26.6307 34.6662 27.0739C34.2798 27.517 33.7723 27.8068 33.1435 27.9432V28.0341C33.9616 28.1477 34.5885 28.4508 35.0241 28.9432C35.4635 29.4318 35.6813 30.0398 35.6776 30.767C35.6776 31.4186 35.492 32.0019 35.1207 32.517C34.7533 33.0284 34.2457 33.4299 33.598 33.7216C32.9541 34.0133 32.2154 34.1591 31.3821 34.1591Z" fill="white"/>
<defs>
<linearGradient id="paint0_linear_992_3003" x1="3.24932" y1="2.98099" x2="80.5275" y2="45.9353" gradientUnits="userSpaceOnUse">
<stop stop-color="#EFE3E6"/>
<stop offset="0.662143" stop-color="#DF496A"/>
<stop offset="1" stop-color="#BF435E"/>
</linearGradient>
</defs>
</svg>
