<svg width="112" height="74" viewBox="0 0 112 74" fill="none" xmlns="http://www.w3.org/2000/svg">
<rect x="0.5" y="0.5" width="111" height="73" rx="19.5" fill="#0E0E0E"/>
<rect x="0.5" y="0.5" width="111" height="73" rx="19.5" stroke="url(#paint0_linear_895_1507)"/>
<path d="M46.3366 47.3878C44.6993 47.3878 43.294 46.9735 42.1207 46.1449C40.9541 45.3097 40.0559 44.1065 39.4261 42.5355C38.803 40.9579 38.4915 39.0587 38.4915 36.8381C38.4981 34.6174 38.813 32.7282 39.4361 31.1705C40.0658 29.6061 40.964 28.4129 42.1307 27.5909C43.304 26.7689 44.706 26.358 46.3366 26.358C47.9673 26.358 49.3693 26.7689 50.5426 27.5909C51.7159 28.4129 52.6141 29.6061 53.2372 31.1705C53.867 32.7348 54.1818 34.6241 54.1818 36.8381C54.1818 39.0653 53.867 40.9678 53.2372 42.5455C52.6141 44.1165 51.7159 45.3163 50.5426 46.1449C49.3759 46.9735 47.974 47.3878 46.3366 47.3878ZM46.3366 44.2756C47.6094 44.2756 48.6136 43.6491 49.3494 42.3963C50.0919 41.1368 50.4631 39.2841 50.4631 36.8381C50.4631 35.2206 50.294 33.8617 49.956 32.7614C49.6179 31.661 49.1406 30.8324 48.5241 30.2756C47.9077 29.7121 47.1785 29.4304 46.3366 29.4304C45.0705 29.4304 44.0696 30.0601 43.3338 31.3196C42.598 32.5724 42.2268 34.4119 42.2202 36.8381C42.2135 38.4621 42.3759 39.8277 42.7074 40.9347C43.0455 42.0417 43.5227 42.8769 44.1392 43.4403C44.7557 43.9972 45.4882 44.2756 46.3366 44.2756ZM57.1175 43.2216V40.2884L65.7582 26.6364H68.2042V30.8125H66.7127L60.896 40.0298V40.1889H72.957V43.2216H57.1175ZM66.832 47V42.3267L66.8718 41.0142V26.6364H70.3519V47H66.832Z" fill="white"/>
<defs>
<linearGradient id="paint0_linear_895_1507" x1="6.86649" y1="3.93916" x2="126.277" y2="110.082" gradientUnits="userSpaceOnUse">
<stop stop-color="#EFE3E6"/>
<stop offset="0.662143" stop-color="#DF496A"/>
<stop offset="1" stop-color="#BF435E"/>
</linearGradient>
</defs>
</svg>
