<svg width="53" height="56" viewBox="0 0 53 56" fill="none" xmlns="http://www.w3.org/2000/svg">
<rect x="0.5" y="0.5" width="52" height="55" rx="19.5" fill="#0E0E0E"/>
<rect x="0.5" y="0.5" width="52" height="55" rx="19.5" stroke="url(#paint0_linear_992_3013)"/>
<path d="M20.8352 34.2216C19.8996 34.2216 19.0966 33.9848 18.4261 33.5114C17.7595 33.0341 17.2462 32.3466 16.8864 31.4489C16.5303 30.5473 16.3523 29.4621 16.3523 28.1932C16.3561 26.9242 16.536 25.8447 16.892 24.9545C17.2519 24.0606 17.7652 23.3788 18.4318 22.9091C19.1023 22.4394 19.9034 22.2045 20.8352 22.2045C21.767 22.2045 22.5682 22.4394 23.2386 22.9091C23.9091 23.3788 24.4223 24.0606 24.7784 24.9545C25.1383 25.8485 25.3182 26.928 25.3182 28.1932C25.3182 29.4659 25.1383 30.553 24.7784 31.4545C24.4223 32.3523 23.9091 33.0379 23.2386 33.5114C22.572 33.9848 21.7708 34.2216 20.8352 34.2216ZM20.8352 32.4432C21.5625 32.4432 22.1364 32.0852 22.5568 31.3693C22.9811 30.6496 23.1932 29.5909 23.1932 28.1932C23.1932 27.2689 23.0966 26.4924 22.9034 25.8636C22.7102 25.2348 22.4375 24.7614 22.0852 24.4432C21.733 24.1212 21.3163 23.9602 20.8352 23.9602C20.1117 23.9602 19.5398 24.3201 19.1193 25.0398C18.6989 25.7557 18.4867 26.8068 18.483 28.1932C18.4792 29.1212 18.572 29.9015 18.7614 30.5341C18.9545 31.1667 19.2273 31.6439 19.5795 31.9659C19.9318 32.2841 20.3504 32.4432 20.8352 32.4432ZM26.9957 31.8409V30.1648L31.9332 22.3636H33.331V24.75H32.4787L29.1548 30.017V30.108H36.0469V31.8409H26.9957ZM32.5469 34V31.3295L32.5696 30.5795V22.3636H34.5582V34H32.5469Z" fill="white"/>
<defs>
<linearGradient id="paint0_linear_992_3013" x1="3.24932" y1="2.98099" x2="80.5275" y2="45.9353" gradientUnits="userSpaceOnUse">
<stop stop-color="#EFE3E6"/>
<stop offset="0.662143" stop-color="#DF496A"/>
<stop offset="1" stop-color="#BF435E"/>
</linearGradient>
</defs>
</svg>
