<svg width="112" height="74" viewBox="0 0 112 74" fill="none" xmlns="http://www.w3.org/2000/svg">
<rect x="0.5" y="0.5" width="111" height="73" rx="19.5" fill="#0E0E0E"/>
<rect x="0.5" y="0.5" width="111" height="73" rx="19.5" stroke="url(#paint0_linear_895_1513)"/>
<path d="M46.8366 47.3878C45.1993 47.3878 43.794 46.9735 42.6207 46.1449C41.4541 45.3097 40.5559 44.1065 39.9261 42.5355C39.303 40.9579 38.9915 39.0587 38.9915 36.8381C38.9981 34.6174 39.313 32.7282 39.9361 31.1705C40.5658 29.6061 41.464 28.4129 42.6307 27.5909C43.804 26.7689 45.206 26.358 46.8366 26.358C48.4673 26.358 49.8693 26.7689 51.0426 27.5909C52.2159 28.4129 53.1141 29.6061 53.7372 31.1705C54.367 32.7348 54.6818 34.6241 54.6818 36.8381C54.6818 39.0653 54.367 40.9678 53.7372 42.5455C53.1141 44.1165 52.2159 45.3163 51.0426 46.1449C49.8759 46.9735 48.474 47.3878 46.8366 47.3878ZM46.8366 44.2756C48.1094 44.2756 49.1136 43.6491 49.8494 42.3963C50.5919 41.1368 50.9631 39.2841 50.9631 36.8381C50.9631 35.2206 50.794 33.8617 50.456 32.7614C50.1179 31.661 49.6406 30.8324 49.0241 30.2756C48.4077 29.7121 47.6785 29.4304 46.8366 29.4304C45.5705 29.4304 44.5696 30.0601 43.8338 31.3196C43.098 32.5724 42.7268 34.4119 42.7202 36.8381C42.7135 38.4621 42.8759 39.8277 43.2074 40.9347C43.5455 42.0417 44.0227 42.8769 44.6392 43.4403C45.2557 43.9972 45.9882 44.2756 46.8366 44.2756ZM65.065 47.2784C63.7392 47.2784 62.5527 47.0298 61.5053 46.5327C60.458 46.0289 59.6261 45.3395 59.0096 44.4645C58.3997 43.5895 58.0749 42.5885 58.0352 41.4616H61.6147C61.681 42.2969 62.0423 42.9796 62.6985 43.5099C63.3548 44.0336 64.1436 44.2955 65.065 44.2955C65.7875 44.2955 66.4305 44.1297 66.994 43.7983C67.5574 43.4669 68.0015 43.0062 68.3263 42.4162C68.6512 41.8262 68.8103 41.1534 68.8036 40.3977C68.8103 39.6288 68.6478 38.946 68.3164 38.3494C67.985 37.7528 67.5309 37.2855 66.9542 36.9474C66.3775 36.6027 65.7146 36.4304 64.9656 36.4304C64.3557 36.4238 63.7558 36.5365 63.1658 36.7685C62.5759 37.0005 62.1085 37.3054 61.7638 37.6832L58.4329 37.1364L59.4968 26.6364H71.3093V29.7188H62.5494L61.9627 35.1179H62.082C62.4599 34.6738 62.9935 34.3059 63.6829 34.0142C64.3723 33.7159 65.128 33.5668 65.9499 33.5668C67.1829 33.5668 68.2833 33.8584 69.2511 34.4418C70.2189 35.0185 70.9812 35.8139 71.538 36.8281C72.0948 37.8423 72.3732 39.0024 72.3732 40.3082C72.3732 41.6539 72.0617 42.8537 71.4386 43.9077C70.8221 44.955 69.9637 45.7803 68.8633 46.3835C67.7695 46.9801 66.5034 47.2784 65.065 47.2784Z" fill="white"/>
<defs>
<linearGradient id="paint0_linear_895_1513" x1="6.86649" y1="3.93916" x2="126.277" y2="110.082" gradientUnits="userSpaceOnUse">
<stop stop-color="#EFE3E6"/>
<stop offset="0.662143" stop-color="#DF496A"/>
<stop offset="1" stop-color="#BF435E"/>
</linearGradient>
</defs>
</svg>
