<svg width="53" height="56" viewBox="0 0 53 56" fill="none" xmlns="http://www.w3.org/2000/svg">
<rect x="0.5" y="0.5" width="52" height="55" rx="19.5" fill="#0E0E0E"/>
<rect x="0.5" y="0.5" width="52" height="55" rx="19.5" stroke="url(#paint0_linear_992_3023)"/>
<path d="M21.3352 34.2216C20.3996 34.2216 19.5966 33.9848 18.9261 33.5114C18.2595 33.0341 17.7462 32.3466 17.3864 31.4489C17.0303 30.5473 16.8523 29.4621 16.8523 28.1932C16.8561 26.9242 17.036 25.8447 17.392 24.9545C17.7519 24.0606 18.2652 23.3788 18.9318 22.9091C19.6023 22.4394 20.4034 22.2045 21.3352 22.2045C22.267 22.2045 23.0682 22.4394 23.7386 22.9091C24.4091 23.3788 24.9223 24.0606 25.2784 24.9545C25.6383 25.8485 25.8182 26.928 25.8182 28.1932C25.8182 29.4659 25.6383 30.553 25.2784 31.4545C24.9223 32.3523 24.4091 33.0379 23.7386 33.5114C23.072 33.9848 22.2708 34.2216 21.3352 34.2216ZM21.3352 32.4432C22.0625 32.4432 22.6364 32.0852 23.0568 31.3693C23.4811 30.6496 23.6932 29.5909 23.6932 28.1932C23.6932 27.2689 23.5966 26.4924 23.4034 25.8636C23.2102 25.2348 22.9375 24.7614 22.5852 24.4432C22.233 24.1212 21.8163 23.9602 21.3352 23.9602C20.6117 23.9602 20.0398 24.3201 19.6193 25.0398C19.1989 25.7557 18.9867 26.8068 18.983 28.1932C18.9792 29.1212 19.072 29.9015 19.2614 30.5341C19.4545 31.1667 19.7273 31.6439 20.0795 31.9659C20.4318 32.2841 20.8504 32.4432 21.3352 32.4432ZM31.7514 34.1591C30.9938 34.1591 30.3158 34.017 29.7173 33.733C29.1188 33.4451 28.6435 33.0511 28.2912 32.5511C27.9427 32.0511 27.7571 31.4792 27.7344 30.8352H29.7798C29.8177 31.3125 30.0241 31.7027 30.3991 32.0057C30.7741 32.3049 31.2249 32.4545 31.7514 32.4545C32.1643 32.4545 32.5317 32.3598 32.8537 32.1705C33.1757 31.9811 33.4295 31.7178 33.6151 31.3807C33.8007 31.0436 33.8916 30.6591 33.8878 30.2273C33.8916 29.7879 33.7988 29.3977 33.6094 29.0568C33.42 28.7159 33.1605 28.4489 32.831 28.2557C32.5014 28.0587 32.1226 27.9602 31.6946 27.9602C31.3461 27.9564 31.0033 28.0208 30.6662 28.1534C30.3291 28.286 30.062 28.4602 29.8651 28.6761L27.9616 28.3636L28.5696 22.3636H35.3196V24.125H30.3139L29.9787 27.2102H30.0469C30.2628 26.9564 30.5677 26.7462 30.9616 26.5795C31.3556 26.4091 31.7874 26.3239 32.2571 26.3239C32.9616 26.3239 33.5904 26.4905 34.1435 26.8239C34.6965 27.1534 35.1321 27.608 35.4503 28.1875C35.7685 28.767 35.9276 29.4299 35.9276 30.1761C35.9276 30.9451 35.7495 31.6307 35.3935 32.233C35.0412 32.8314 34.5507 33.303 33.9219 33.6477C33.2969 33.9886 32.5734 34.1591 31.7514 34.1591Z" fill="white"/>
<defs>
<linearGradient id="paint0_linear_992_3023" x1="3.24932" y1="2.98099" x2="80.5275" y2="45.9353" gradientUnits="userSpaceOnUse">
<stop stop-color="#EFE3E6"/>
<stop offset="0.662143" stop-color="#DF496A"/>
<stop offset="1" stop-color="#BF435E"/>
</linearGradient>
</defs>
</svg>
