<svg width="112" height="74" viewBox="0 0 112 74" fill="none" xmlns="http://www.w3.org/2000/svg">
<rect x="0.5" y="0.5" width="111" height="73" rx="19.5" fill="#0E0E0E"/>
<rect x="0.5" y="0.5" width="111" height="73" rx="19.5" stroke="url(#paint0_linear_895_1515)"/>
<path d="M46.8366 47.3878C45.1993 47.3878 43.794 46.9735 42.6207 46.1449C41.4541 45.3097 40.5559 44.1065 39.9261 42.5355C39.303 40.9579 38.9915 39.0587 38.9915 36.8381C38.9981 34.6174 39.313 32.7282 39.9361 31.1705C40.5658 29.6061 41.464 28.4129 42.6307 27.5909C43.804 26.7689 45.206 26.358 46.8366 26.358C48.4673 26.358 49.8693 26.7689 51.0426 27.5909C52.2159 28.4129 53.1141 29.6061 53.7372 31.1705C54.367 32.7348 54.6818 34.6241 54.6818 36.8381C54.6818 39.0653 54.367 40.9678 53.7372 42.5455C53.1141 44.1165 52.2159 45.3163 51.0426 46.1449C49.8759 46.9735 48.474 47.3878 46.8366 47.3878ZM46.8366 44.2756C48.1094 44.2756 49.1136 43.6491 49.8494 42.3963C50.5919 41.1368 50.9631 39.2841 50.9631 36.8381C50.9631 35.2206 50.794 33.8617 50.456 32.7614C50.1179 31.661 49.6406 30.8324 49.0241 30.2756C48.4077 29.7121 47.6785 29.4304 46.8366 29.4304C45.5705 29.4304 44.5696 30.0601 43.8338 31.3196C43.098 32.5724 42.7268 34.4119 42.7202 36.8381C42.7135 38.4621 42.8759 39.8277 43.2074 40.9347C43.5455 42.0417 44.0227 42.8769 44.6392 43.4403C45.2557 43.9972 45.9882 44.2756 46.8366 44.2756ZM65.4428 47.2784C64.4684 47.2718 63.5172 47.1027 62.5891 46.7713C61.6611 46.4332 60.8259 45.8864 60.0835 45.1307C59.341 44.3684 58.7511 43.3575 58.3136 42.098C57.8761 40.8319 57.6606 39.2642 57.6673 37.3949C57.6673 35.6515 57.8529 34.0971 58.2241 32.7315C58.5953 31.366 59.1289 30.2126 59.8249 29.2713C60.521 28.3234 61.3595 27.6009 62.3406 27.1037C63.3282 26.6065 64.4319 26.358 65.6516 26.358C66.931 26.358 68.0645 26.6098 69.0522 27.1136C70.0465 27.6174 70.8486 28.3068 71.4585 29.1818C72.0683 30.0502 72.4461 31.0312 72.592 32.125H68.9627C68.7771 31.3428 68.396 30.7197 67.8192 30.2557C67.2492 29.785 66.5266 29.5497 65.6516 29.5497C64.2397 29.5497 63.1526 30.1629 62.3903 31.3892C61.6346 32.6155 61.2534 34.2992 61.2468 36.4403H61.386C61.7108 35.857 62.1317 35.3565 62.6488 34.9389C63.1658 34.5213 63.7492 34.1998 64.3988 33.9744C65.055 33.7424 65.7478 33.6264 66.4769 33.6264C67.6701 33.6264 68.7406 33.9115 69.6886 34.4815C70.6431 35.0516 71.3988 35.8371 71.9556 36.8381C72.5124 37.8324 72.7875 38.9725 72.7809 40.2585C72.7875 41.5975 72.4826 42.8007 71.8661 43.8679C71.2496 44.9285 70.3912 45.7637 69.2908 46.3736C68.1905 46.9834 66.9078 47.285 65.4428 47.2784ZM65.4229 44.2955C66.1455 44.2955 66.7918 44.1198 67.3619 43.7685C67.9319 43.4171 68.3827 42.9432 68.7141 42.3466C69.0456 41.75 69.208 41.0805 69.2013 40.3381C69.208 39.6089 69.0489 38.9493 68.7241 38.3594C68.4059 37.7694 67.9651 37.3021 67.4016 36.9574C66.8382 36.6127 66.1952 36.4403 65.4727 36.4403C64.9357 36.4403 64.4353 36.5431 63.9712 36.7486C63.5072 36.9541 63.1029 37.2391 62.7582 37.6037C62.4135 37.9616 62.1417 38.3793 61.9428 38.8565C61.7506 39.3272 61.6512 39.831 61.6445 40.3679C61.6512 41.0772 61.8169 41.7301 62.1417 42.3267C62.4665 42.9233 62.9139 43.4006 63.484 43.7585C64.0541 44.1165 64.7004 44.2955 65.4229 44.2955Z" fill="white"/>
<defs>
<linearGradient id="paint0_linear_895_1515" x1="6.86649" y1="3.93916" x2="126.277" y2="110.082" gradientUnits="userSpaceOnUse">
<stop stop-color="#EFE3E6"/>
<stop offset="0.662143" stop-color="#DF496A"/>
<stop offset="1" stop-color="#BF435E"/>
</linearGradient>
</defs>
</svg>
