<svg width="53" height="56" viewBox="0 0 53 56" fill="none" xmlns="http://www.w3.org/2000/svg">
<rect x="0.5" y="0.5" width="52" height="55" rx="19.5" fill="#0E0E0E"/>
<rect x="0.5" y="0.5" width="52" height="55" rx="19.5" stroke="url(#paint0_linear_992_3033)"/>
<path d="M20.8352 34.2216C19.8996 34.2216 19.0966 33.9848 18.4261 33.5114C17.7595 33.0341 17.2462 32.3466 16.8864 31.4489C16.5303 30.5473 16.3523 29.4621 16.3523 28.1932C16.3561 26.9242 16.536 25.8447 16.892 24.9545C17.2519 24.0606 17.7652 23.3788 18.4318 22.9091C19.1023 22.4394 19.9034 22.2045 20.8352 22.2045C21.767 22.2045 22.5682 22.4394 23.2386 22.9091C23.9091 23.3788 24.4223 24.0606 24.7784 24.9545C25.1383 25.8485 25.3182 26.928 25.3182 28.1932C25.3182 29.4659 25.1383 30.553 24.7784 31.4545C24.4223 32.3523 23.9091 33.0379 23.2386 33.5114C22.572 33.9848 21.7708 34.2216 20.8352 34.2216ZM20.8352 32.4432C21.5625 32.4432 22.1364 32.0852 22.5568 31.3693C22.9811 30.6496 23.1932 29.5909 23.1932 28.1932C23.1932 27.2689 23.0966 26.4924 22.9034 25.8636C22.7102 25.2348 22.4375 24.7614 22.0852 24.4432C21.733 24.1212 21.3163 23.9602 20.8352 23.9602C20.1117 23.9602 19.5398 24.3201 19.1193 25.0398C18.6989 25.7557 18.4867 26.8068 18.483 28.1932C18.4792 29.1212 18.572 29.9015 18.7614 30.5341C18.9545 31.1667 19.2273 31.6439 19.5795 31.9659C19.9318 32.2841 20.3504 32.4432 20.8352 32.4432ZM31.4673 34.1591C30.9105 34.1553 30.367 34.0587 29.8366 33.8693C29.3063 33.6761 28.8291 33.3636 28.4048 32.9318C27.9806 32.4962 27.6435 31.9186 27.3935 31.1989C27.1435 30.4754 27.0204 29.5795 27.0241 28.5114C27.0241 27.5152 27.1302 26.6269 27.3423 25.8466C27.5545 25.0663 27.8594 24.4072 28.2571 23.8693C28.6548 23.3277 29.134 22.9148 29.6946 22.6307C30.259 22.3466 30.8897 22.2045 31.5866 22.2045C32.3177 22.2045 32.9654 22.3485 33.5298 22.6364C34.098 22.9242 34.5563 23.3182 34.9048 23.8182C35.2533 24.3144 35.4692 24.875 35.5526 25.5H33.4787C33.3726 25.053 33.1548 24.697 32.8253 24.4318C32.4995 24.1629 32.0866 24.0284 31.5866 24.0284C30.7798 24.0284 30.1586 24.3788 29.723 25.0795C29.2912 25.7803 29.0734 26.7424 29.0696 27.9659H29.1491C29.3348 27.6326 29.5753 27.3466 29.8707 27.108C30.1662 26.8693 30.4995 26.6856 30.8707 26.5568C31.2457 26.4242 31.6416 26.358 32.0582 26.358C32.7401 26.358 33.3518 26.5208 33.8935 26.8466C34.4389 27.1723 34.8707 27.6212 35.1889 28.1932C35.5071 28.7614 35.6643 29.4129 35.6605 30.1477C35.6643 30.9129 35.4901 31.6004 35.1378 32.2102C34.7855 32.8163 34.295 33.2936 33.6662 33.642C33.0374 33.9905 32.3045 34.1629 31.4673 34.1591ZM31.456 32.4545C31.8688 32.4545 32.2382 32.3542 32.5639 32.1534C32.8897 31.9527 33.1473 31.6818 33.3366 31.3409C33.526 31 33.6188 30.6174 33.6151 30.1932C33.6188 29.7765 33.5279 29.3996 33.3423 29.0625C33.1605 28.7254 32.9086 28.4583 32.5866 28.2614C32.2647 28.0644 31.8973 27.9659 31.4844 27.9659C31.1776 27.9659 30.8916 28.0246 30.6264 28.142C30.3613 28.2595 30.1302 28.4223 29.9332 28.6307C29.7363 28.8352 29.581 29.0739 29.4673 29.3466C29.3575 29.6155 29.3007 29.9034 29.2969 30.2102C29.3007 30.6155 29.3954 30.9886 29.581 31.3295C29.7666 31.6705 30.0223 31.9432 30.348 32.1477C30.6738 32.3523 31.0431 32.4545 31.456 32.4545Z" fill="white"/>
<defs>
<linearGradient id="paint0_linear_992_3033" x1="3.24932" y1="2.98099" x2="80.5275" y2="45.9353" gradientUnits="userSpaceOnUse">
<stop stop-color="#EFE3E6"/>
<stop offset="0.662143" stop-color="#DF496A"/>
<stop offset="1" stop-color="#BF435E"/>
</linearGradient>
</defs>
</svg>
