<svg width="112" height="74" viewBox="0 0 112 74" fill="none" xmlns="http://www.w3.org/2000/svg">
<rect x="0.5" y="0.5" width="111" height="73" rx="19.5" fill="#0E0E0E"/>
<rect x="0.5" y="0.5" width="111" height="73" rx="19.5" stroke="url(#paint0_linear_895_1509)"/>
<path d="M47.8366 47.3878C46.1993 47.3878 44.794 46.9735 43.6207 46.1449C42.4541 45.3097 41.5559 44.1065 40.9261 42.5355C40.303 40.9579 39.9915 39.0587 39.9915 36.8381C39.9981 34.6174 40.313 32.7282 40.9361 31.1705C41.5658 29.6061 42.464 28.4129 43.6307 27.5909C44.804 26.7689 46.206 26.358 47.8366 26.358C49.4673 26.358 50.8693 26.7689 52.0426 27.5909C53.2159 28.4129 54.1141 29.6061 54.7372 31.1705C55.367 32.7348 55.6818 34.6241 55.6818 36.8381C55.6818 39.0653 55.367 40.9678 54.7372 42.5455C54.1141 44.1165 53.2159 45.3163 52.0426 46.1449C50.8759 46.9735 49.474 47.3878 47.8366 47.3878ZM47.8366 44.2756C49.1094 44.2756 50.1136 43.6491 50.8494 42.3963C51.5919 41.1368 51.9631 39.2841 51.9631 36.8381C51.9631 35.2206 51.794 33.8617 51.456 32.7614C51.1179 31.661 50.6406 30.8324 50.0241 30.2756C49.4077 29.7121 48.6785 29.4304 47.8366 29.4304C46.5705 29.4304 45.5696 30.0601 44.8338 31.3196C44.098 32.5724 43.7268 34.4119 43.7202 36.8381C43.7135 38.4621 43.8759 39.8277 44.2074 40.9347C44.5455 42.0417 45.0227 42.8769 45.6392 43.4403C46.2557 43.9972 46.9882 44.2756 47.8366 44.2756ZM59.1843 47L67.8448 29.858V29.7188H57.7923V26.6364H71.663V29.7884L63.0124 47H59.1843Z" fill="white"/>
<defs>
<linearGradient id="paint0_linear_895_1509" x1="6.86649" y1="3.93916" x2="126.277" y2="110.082" gradientUnits="userSpaceOnUse">
<stop stop-color="#EFE3E6"/>
<stop offset="0.662143" stop-color="#DF496A"/>
<stop offset="1" stop-color="#BF435E"/>
</linearGradient>
</defs>
</svg>
