<svg width="53" height="56" viewBox="0 0 53 56" fill="none" xmlns="http://www.w3.org/2000/svg">
<rect x="0.5" y="0.5" width="52" height="55" rx="19.5" fill="#0E0E0E"/>
<rect x="0.5" y="0.5" width="52" height="55" rx="19.5" stroke="url(#paint0_linear_992_3043)"/>
<path d="M21.8352 34.2216C20.8996 34.2216 20.0966 33.9848 19.4261 33.5114C18.7595 33.0341 18.2462 32.3466 17.8864 31.4489C17.5303 30.5473 17.3523 29.4621 17.3523 28.1932C17.3561 26.9242 17.536 25.8447 17.892 24.9545C18.2519 24.0606 18.7652 23.3788 19.4318 22.9091C20.1023 22.4394 20.9034 22.2045 21.8352 22.2045C22.767 22.2045 23.5682 22.4394 24.2386 22.9091C24.9091 23.3788 25.4223 24.0606 25.7784 24.9545C26.1383 25.8485 26.3182 26.928 26.3182 28.1932C26.3182 29.4659 26.1383 30.553 25.7784 31.4545C25.4223 32.3523 24.9091 33.0379 24.2386 33.5114C23.572 33.9848 22.7708 34.2216 21.8352 34.2216ZM21.8352 32.4432C22.5625 32.4432 23.1364 32.0852 23.5568 31.3693C23.9811 30.6496 24.1932 29.5909 24.1932 28.1932C24.1932 27.2689 24.0966 26.4924 23.9034 25.8636C23.7102 25.2348 23.4375 24.7614 23.0852 24.4432C22.733 24.1212 22.3163 23.9602 21.8352 23.9602C21.1117 23.9602 20.5398 24.3201 20.1193 25.0398C19.6989 25.7557 19.4867 26.8068 19.483 28.1932C19.4792 29.1212 19.572 29.9015 19.7614 30.5341C19.9545 31.1667 20.2273 31.6439 20.5795 31.9659C20.9318 32.2841 21.3504 32.4432 21.8352 32.4432ZM28.3196 34L33.2685 24.2045V24.125H27.5241V22.3636H35.4503V24.1648L30.5071 34H28.3196Z" fill="white"/>
<defs>
<linearGradient id="paint0_linear_992_3043" x1="3.24932" y1="2.98099" x2="80.5275" y2="45.9353" gradientUnits="userSpaceOnUse">
<stop stop-color="#EFE3E6"/>
<stop offset="0.662143" stop-color="#DF496A"/>
<stop offset="1" stop-color="#BF435E"/>
</linearGradient>
</defs>
</svg>
