<svg width="112" height="74" viewBox="0 0 112 74" fill="none" xmlns="http://www.w3.org/2000/svg">
<rect x="0.5" y="0.5" width="111" height="73" rx="19.5" fill="#0E0E0E"/>
<rect x="0.5" y="0.5" width="111" height="73" rx="19.5" stroke="url(#paint0_linear_895_1546)"/>
<path d="M46.8366 47.3878C45.1993 47.3878 43.794 46.9735 42.6207 46.1449C41.4541 45.3097 40.5559 44.1065 39.9261 42.5355C39.303 40.9579 38.9915 39.0587 38.9915 36.8381C38.9981 34.6174 39.313 32.7282 39.9361 31.1705C40.5658 29.6061 41.464 28.4129 42.6307 27.5909C43.804 26.7689 45.206 26.358 46.8366 26.358C48.4673 26.358 49.8693 26.7689 51.0426 27.5909C52.2159 28.4129 53.1141 29.6061 53.7372 31.1705C54.367 32.7348 54.6818 34.6241 54.6818 36.8381C54.6818 39.0653 54.367 40.9678 53.7372 42.5455C53.1141 44.1165 52.2159 45.3163 51.0426 46.1449C49.8759 46.9735 48.474 47.3878 46.8366 47.3878ZM46.8366 44.2756C48.1094 44.2756 49.1136 43.6491 49.8494 42.3963C50.5919 41.1368 50.9631 39.2841 50.9631 36.8381C50.9631 35.2206 50.794 33.8617 50.456 32.7614C50.1179 31.661 49.6406 30.8324 49.0241 30.2756C48.4077 29.7121 47.6785 29.4304 46.8366 29.4304C45.5705 29.4304 44.5696 30.0601 43.8338 31.3196C43.098 32.5724 42.7268 34.4119 42.7202 36.8381C42.7135 38.4621 42.8759 39.8277 43.2074 40.9347C43.5455 42.0417 44.0227 42.8769 44.6392 43.4403C45.2557 43.9972 45.9882 44.2756 46.8366 44.2756ZM65.2241 47.2784C63.7459 47.2784 62.4334 47.0298 61.2866 46.5327C60.1464 46.0355 59.2515 45.3561 58.6019 44.4943C57.9589 43.6259 57.6407 42.6416 57.6474 41.5412C57.6407 40.6861 57.8263 39.9006 58.2042 39.1847C58.582 38.4688 59.0924 37.8722 59.7354 37.3949C60.3851 36.911 61.1076 36.6027 61.9031 36.4702V36.331C60.8557 36.099 60.0072 35.5653 59.3576 34.7301C58.7146 33.8883 58.3964 32.9171 58.4031 31.8168C58.3964 30.7694 58.6881 29.8348 59.2781 29.0128C59.868 28.1908 60.6767 27.5445 61.7042 27.0739C62.7317 26.5966 63.9049 26.358 65.2241 26.358C66.5299 26.358 67.6933 26.5966 68.7141 27.0739C69.7416 27.5445 70.5503 28.1908 71.1403 29.0128C71.7369 29.8348 72.0352 30.7694 72.0352 31.8168C72.0352 32.9171 71.707 33.8883 71.0508 34.7301C70.4012 35.5653 69.5626 36.099 68.5352 36.331V36.4702C69.3306 36.6027 70.0465 36.911 70.6829 37.3949C71.3259 37.8722 71.8363 38.4688 72.2141 39.1847C72.5986 39.9006 72.7908 40.6861 72.7908 41.5412C72.7908 42.6416 72.466 43.6259 71.8164 44.4943C71.1668 45.3561 70.2719 46.0355 69.1317 46.5327C67.9982 47.0298 66.6957 47.2784 65.2241 47.2784ZM65.2241 44.4347C65.9864 44.4347 66.6493 44.3054 67.2127 44.0469C67.7762 43.7817 68.2137 43.4105 68.5252 42.9332C68.8368 42.456 68.9959 41.9058 69.0025 41.2827C68.9959 40.633 68.8268 40.0597 68.4954 39.5625C68.1706 39.0587 67.7231 38.6643 67.1531 38.3793C66.5896 38.0942 65.9466 37.9517 65.2241 37.9517C64.4949 37.9517 63.8453 38.0942 63.2752 38.3793C62.7051 38.6643 62.2544 39.0587 61.9229 39.5625C61.5981 40.0597 61.439 40.633 61.4457 41.2827C61.439 41.9058 61.5915 42.456 61.9031 42.9332C62.2146 43.4039 62.6521 43.7718 63.2156 44.0369C63.7856 44.3021 64.4551 44.4347 65.2241 44.4347ZM65.2241 35.1577C65.8472 35.1577 66.3974 35.0317 66.8746 34.7798C67.3585 34.5279 67.7397 34.1766 68.0181 33.7259C68.2965 33.2751 68.439 32.7547 68.4457 32.1648C68.439 31.5814 68.2998 31.071 68.0281 30.6335C67.7563 30.1894 67.3784 29.848 66.8945 29.6094C66.4106 29.3641 65.8538 29.2415 65.2241 29.2415C64.5811 29.2415 64.0143 29.3641 63.5238 29.6094C63.0399 29.848 62.6621 30.1894 62.3903 30.6335C62.1251 31.071 61.9959 31.5814 62.0025 32.1648C61.9959 32.7547 62.1284 33.2751 62.4002 33.7259C62.6786 34.17 63.0598 34.5213 63.5437 34.7798C64.0342 35.0317 64.5943 35.1577 65.2241 35.1577Z" fill="white"/>
<defs>
<linearGradient id="paint0_linear_895_1546" x1="6.86649" y1="3.93916" x2="126.277" y2="110.082" gradientUnits="userSpaceOnUse">
<stop stop-color="#EFE3E6"/>
<stop offset="0.662143" stop-color="#DF496A"/>
<stop offset="1" stop-color="#BF435E"/>
</linearGradient>
</defs>
</svg>
