<svg width="53" height="56" viewBox="0 0 53 56" fill="none" xmlns="http://www.w3.org/2000/svg">
<rect x="0.5" y="0.5" width="52" height="55" rx="19.5" fill="#0E0E0E"/>
<rect x="0.5" y="0.5" width="52" height="55" rx="19.5" stroke="url(#paint0_linear_992_3053)"/>
<path d="M21.3352 34.2216C20.3996 34.2216 19.5966 33.9848 18.9261 33.5114C18.2595 33.0341 17.7462 32.3466 17.3864 31.4489C17.0303 30.5473 16.8523 29.4621 16.8523 28.1932C16.8561 26.9242 17.036 25.8447 17.392 24.9545C17.7519 24.0606 18.2652 23.3788 18.9318 22.9091C19.6023 22.4394 20.4034 22.2045 21.3352 22.2045C22.267 22.2045 23.0682 22.4394 23.7386 22.9091C24.4091 23.3788 24.9223 24.0606 25.2784 24.9545C25.6383 25.8485 25.8182 26.928 25.8182 28.1932C25.8182 29.4659 25.6383 30.553 25.2784 31.4545C24.9223 32.3523 24.4091 33.0379 23.7386 33.5114C23.072 33.9848 22.2708 34.2216 21.3352 34.2216ZM21.3352 32.4432C22.0625 32.4432 22.6364 32.0852 23.0568 31.3693C23.4811 30.6496 23.6932 29.5909 23.6932 28.1932C23.6932 27.2689 23.5966 26.4924 23.4034 25.8636C23.2102 25.2348 22.9375 24.7614 22.5852 24.4432C22.233 24.1212 21.8163 23.9602 21.3352 23.9602C20.6117 23.9602 20.0398 24.3201 19.6193 25.0398C19.1989 25.7557 18.9867 26.8068 18.983 28.1932C18.9792 29.1212 19.072 29.9015 19.2614 30.5341C19.4545 31.1667 19.7273 31.6439 20.0795 31.9659C20.4318 32.2841 20.8504 32.4432 21.3352 32.4432ZM31.8423 34.1591C30.9976 34.1591 30.2476 34.017 29.5923 33.733C28.9408 33.4489 28.4295 33.0606 28.0582 32.5682C27.6908 32.072 27.509 31.5095 27.5128 30.8807C27.509 30.392 27.6151 29.9432 27.831 29.5341C28.0469 29.125 28.3385 28.7841 28.706 28.5114C29.0772 28.2348 29.4901 28.0587 29.9446 27.983V27.9034C29.3461 27.7708 28.8613 27.4659 28.4901 26.9886C28.1226 26.5076 27.9408 25.9527 27.9446 25.3239C27.9408 24.7254 28.1075 24.1913 28.4446 23.7216C28.7817 23.2519 29.2438 22.8826 29.831 22.6136C30.4181 22.3409 31.0885 22.2045 31.8423 22.2045C32.5885 22.2045 33.2533 22.3409 33.8366 22.6136C34.4238 22.8826 34.8859 23.2519 35.223 23.7216C35.5639 24.1913 35.7344 24.7254 35.7344 25.3239C35.7344 25.9527 35.5469 26.5076 35.1719 26.9886C34.8007 27.4659 34.3215 27.7708 33.7344 27.9034V27.983C34.1889 28.0587 34.598 28.2348 34.9616 28.5114C35.3291 28.7841 35.6207 29.125 35.8366 29.5341C36.0563 29.9432 36.1662 30.392 36.1662 30.8807C36.1662 31.5095 35.9806 32.072 35.6094 32.5682C35.2382 33.0606 34.7268 33.4489 34.0753 33.733C33.4276 34.017 32.6832 34.1591 31.8423 34.1591ZM31.8423 32.5341C32.2779 32.5341 32.6567 32.4602 32.9787 32.3125C33.3007 32.161 33.5507 31.9489 33.7287 31.6761C33.9067 31.4034 33.9976 31.089 34.0014 30.733C33.9976 30.3617 33.901 30.0341 33.7116 29.75C33.526 29.4621 33.2704 29.2367 32.9446 29.0739C32.6226 28.911 32.2552 28.8295 31.8423 28.8295C31.4257 28.8295 31.0545 28.911 30.7287 29.0739C30.4029 29.2367 30.1454 29.4621 29.956 29.75C29.7704 30.0341 29.6795 30.3617 29.6832 30.733C29.6795 31.089 29.7666 31.4034 29.9446 31.6761C30.1226 31.9451 30.3726 32.1553 30.6946 32.3068C31.0204 32.4583 31.4029 32.5341 31.8423 32.5341ZM31.8423 27.233C32.1984 27.233 32.5128 27.161 32.7855 27.017C33.062 26.8731 33.2798 26.6723 33.4389 26.4148C33.598 26.1572 33.6795 25.8598 33.6832 25.5227C33.6795 25.1894 33.5999 24.8977 33.4446 24.6477C33.2893 24.3939 33.0734 24.1989 32.7969 24.0625C32.5204 23.9223 32.2022 23.8523 31.8423 23.8523C31.4749 23.8523 31.151 23.9223 30.8707 24.0625C30.5942 24.1989 30.3783 24.3939 30.223 24.6477C30.0715 24.8977 29.9976 25.1894 30.0014 25.5227C29.9976 25.8598 30.0734 26.1572 30.2287 26.4148C30.3878 26.6686 30.6056 26.8693 30.8821 27.017C31.1624 27.161 31.4825 27.233 31.8423 27.233Z" fill="white"/>
<defs>
<linearGradient id="paint0_linear_992_3053" x1="3.24932" y1="2.98099" x2="80.5275" y2="45.9353" gradientUnits="userSpaceOnUse">
<stop stop-color="#EFE3E6"/>
<stop offset="0.662143" stop-color="#DF496A"/>
<stop offset="1" stop-color="#BF435E"/>
</linearGradient>
</defs>
</svg>
