<svg width="111" height="111" viewBox="0 0 111 111" fill="none" xmlns="http://www.w3.org/2000/svg">
<rect x="0.5" y="0.5" width="110" height="110" rx="55" fill="#1B1A1A"/>
<rect x="0.5" y="0.5" width="110" height="110" rx="55" stroke="url(#paint0_linear_1148_1401)"/>
<path d="M57.1888 57.1925C60.3534 54.0273 64.6459 52.2489 69.1218 52.2486C73.5977 52.2482 77.8904 54.0259 81.0556 57.1906C84.2208 60.3553 85.9992 64.6478 85.9996 69.1237C85.9999 73.5996 84.2222 77.8923 81.0575 81.0575C80.8845 81.2366 80.6776 81.3794 80.4489 81.4777C80.2201 81.576 79.9741 81.6277 79.7251 81.6298C79.4762 81.632 79.2293 81.5846 78.9988 81.4903C78.7684 81.396 78.5591 81.2568 78.383 81.0807C78.207 80.9047 78.0677 80.6953 77.9735 80.4649C77.8792 80.2345 77.8317 79.9876 77.8339 79.7386C77.8361 79.4897 77.8878 79.2436 77.9861 79.0149C78.0843 78.7861 78.2272 78.5792 78.4062 78.4062C80.2417 76.5706 81.4916 74.232 81.9979 71.686C82.5042 69.1401 82.2442 66.5011 81.2508 64.1029C80.2574 61.7047 78.5751 59.6549 76.4167 58.2128C74.2584 56.7707 71.7208 56.0009 69.125 56.0009C66.5292 56.0009 63.9916 56.7707 61.8333 58.2128C59.6749 59.6549 57.9926 61.7047 56.9992 64.1029C56.0058 66.5011 55.7458 69.1401 56.2521 71.686C56.7584 74.232 58.0083 76.5706 59.8437 78.4062C60.0178 78.5806 60.1559 78.7875 60.25 79.0152C60.3441 79.2428 60.3925 79.4868 60.3923 79.7332C60.3921 79.9796 60.3434 80.2235 60.249 80.451C60.1545 80.6786 60.0162 80.8853 59.8419 81.0594C59.6675 81.2335 59.4606 81.3715 59.233 81.4656C59.0053 81.5597 58.7613 81.6081 58.5149 81.6079C58.2686 81.6077 58.0246 81.559 57.7971 81.4646C57.5695 81.3702 57.3628 81.2318 57.1888 81.0575C55.6217 79.4905 54.3787 77.6302 53.5307 75.5828C52.6826 73.5354 52.2461 71.3411 52.2461 69.125C52.2461 66.9089 52.6826 64.7146 53.5307 62.6672C54.3787 60.6198 55.6217 58.7595 57.1888 57.1925ZM62.4912 62.495C63.3619 61.6243 64.3955 60.9337 65.5331 60.4625C66.6707 59.9913 67.8899 59.7488 69.1213 59.7488C70.3526 59.7488 71.5718 59.9913 72.7094 60.4625C73.847 60.9337 74.8806 61.6243 75.7513 62.495C76.6219 63.3657 77.3126 64.3993 77.7838 65.5369C78.255 66.6744 78.4975 67.8937 78.4975 69.125C78.4975 70.3563 78.255 71.5756 77.7838 72.7131C77.3126 73.8507 76.6219 74.8843 75.7513 75.755C75.3992 76.1066 74.9219 76.3039 74.4243 76.3035C73.9267 76.3032 73.4497 76.1052 73.0981 75.7531C72.7465 75.4011 72.5492 74.9237 72.5496 74.4262C72.5499 73.9286 72.7479 73.4516 73.1 73.1C73.8863 72.3132 74.4217 71.3109 74.6384 70.2199C74.8552 69.1288 74.7436 67.998 74.3177 66.9704C73.8919 65.9427 73.1709 65.0645 72.246 64.4465C71.321 63.8286 70.2336 63.4988 69.1213 63.4988C68.0089 63.4988 66.9215 63.8286 65.9965 64.4465C65.0716 65.0645 64.3506 65.9427 63.9248 66.9704C63.4989 67.998 63.3873 69.1288 63.6041 70.2199C63.8208 71.3109 64.3562 72.3132 65.1425 73.1C65.4946 73.4516 65.6926 73.9286 65.6929 74.4262C65.6933 74.9237 65.496 75.4011 65.1444 75.7531C64.7928 76.1052 64.3158 76.3032 63.8182 76.3035C63.3206 76.3039 62.8433 76.1066 62.4912 75.755C61.6204 74.8844 60.9297 73.8508 60.4584 72.7132C59.9871 71.5756 59.7445 70.3563 59.7445 69.125C59.7445 67.8937 59.9871 66.6744 60.4584 65.5368C60.9297 64.3992 61.6204 63.3656 62.4912 62.495ZM53.2175 56C50.1631 59.6913 48.4944 64.3338 48.5 69.125C48.5 70.9437 48.7325 72.7063 49.175 74.3825C47.713 74.6298 46.2327 74.7527 44.75 74.75C40.3438 74.75 36.2375 73.73 33.1663 71.8625C30.0913 69.9875 27.875 67.1188 27.875 63.5C27.875 61.5109 28.6652 59.6032 30.0717 58.1967C31.4782 56.7902 33.3859 56 35.375 56H53.2175ZM44.75 31.625C47.485 31.625 50.1081 32.7115 52.042 34.6455C53.976 36.5794 55.0625 39.2025 55.0625 41.9375C55.0625 44.6725 53.976 47.2956 52.042 49.2295C50.1081 51.1635 47.485 52.25 44.75 52.25C42.015 52.25 39.3919 51.1635 37.458 49.2295C35.524 47.2956 34.4375 44.6725 34.4375 41.9375C34.4375 39.2025 35.524 36.5794 37.458 34.6455C39.3919 32.7115 42.015 31.625 44.75 31.625ZM69.1325 35.3637C70.2415 35.3628 71.3398 35.5804 72.3646 36.0042C73.3894 36.428 74.3205 37.0497 75.1049 37.8337C75.8892 38.6177 76.5113 39.5486 76.9356 40.5732C77.3599 41.5978 77.578 42.696 77.5775 43.805C77.5769 45.9005 76.7932 47.9202 75.38 49.4675C73.3572 48.8251 71.2474 48.4988 69.125 48.5C67.0041 48.4979 64.8956 48.823 62.8737 49.4637C61.7793 48.2523 61.0596 46.7494 60.8019 45.1371C60.5443 43.5249 60.7597 41.8726 61.4221 40.3803C62.0845 38.888 63.1654 37.6199 64.5339 36.7295C65.9025 35.8391 67.4998 35.3647 69.1325 35.3637Z" fill="url(#paint1_linear_1148_1401)"/>
<defs>
<linearGradient id="paint0_linear_1148_1401" x1="6.80518" y1="5.90874" x2="164.324" y2="98.42" gradientUnits="userSpaceOnUse">
<stop stop-color="#EFE3E6"/>
<stop offset="0.662143" stop-color="#DF496A"/>
<stop offset="1" stop-color="#BF435E"/>
</linearGradient>
<linearGradient id="paint1_linear_1148_1401" x1="31.4385" y1="34.2869" x2="87.159" y2="71.6282" gradientUnits="userSpaceOnUse">
<stop stop-color="#FF4F76"/>
<stop offset="1" stop-color="#BF435E"/>
</linearGradient>
</defs>
</svg>
