<svg width="67" height="40" viewBox="0 0 67 40" fill="none" xmlns="http://www.w3.org/2000/svg">
<path d="M0.585793 26.4142C-0.195259 25.6332 -0.195259 24.3668 0.585793 23.5858L13.3137 10.8579C14.0948 10.0768 15.3611 10.0768 16.1421 10.8579C16.9232 11.6389 16.9232 12.9052 16.1421 13.6863L4.82843 25L16.1421 36.3137C16.9232 37.0948 16.9232 38.3611 16.1421 39.1421C15.3611 39.9232 14.0948 39.9232 13.3137 39.1421L0.585793 26.4142ZM57.3667 2L58.439 0.311768C66.0045 5.11719 68.621 11.8205 66.0505 17.6666C63.5818 23.2814 56.7463 27 47.8675 27V25V23C55.816 23 60.7865 19.7007 62.3888 16.0566C63.8894 12.6437 62.8418 7.84701 56.2944 3.68823L57.3667 2ZM47.8675 25V27H2V25V23H47.8675V25Z" fill="url(#paint0_linear_882_1097)"/>
<defs>
<linearGradient id="paint0_linear_882_1097" x1="61.1376" y1="3.22433" x2="36.089" y2="42.7815" gradientUnits="userSpaceOnUse">
<stop stop-color="#FF4F76"/>
<stop offset="1" stop-color="#BF435E"/>
</linearGradient>
</defs>
</svg>
