<svg width="111" height="111" viewBox="0 0 111 111" fill="none" xmlns="http://www.w3.org/2000/svg">
<rect x="0.5" y="0.5" width="110" height="110" rx="55" fill="#1B1A1A"/>
<rect x="0.5" y="0.5" width="110" height="110" rx="55" stroke="url(#paint0_linear_1148_1413)"/>
<path d="M48.5 41C48.5 42.9891 49.2902 44.8968 50.6967 46.3033C52.1032 47.7098 54.0109 48.5 56 48.5C57.9891 48.5 59.8968 47.7098 61.3033 46.3033C62.7098 44.8968 63.5 42.9891 63.5 41C63.5 39.0109 62.7098 37.1032 61.3033 35.6967C59.8968 34.2902 57.9891 33.5 56 33.5C54.0109 33.5 52.1032 34.2902 50.6967 35.6967C49.2902 37.1032 48.5 39.0109 48.5 41ZM37.095 60.755C36.2232 61.2375 35.4562 61.8888 34.839 62.671C34.2217 63.4533 33.7665 64.3506 33.4999 65.3107C33.2334 66.2708 33.1608 67.2744 33.2864 68.2629C33.4121 69.2514 33.7334 70.2049 34.2317 71.0678C34.73 71.9307 35.3953 72.6856 36.1886 73.2885C36.9819 73.8914 37.8875 74.3302 38.8523 74.5792C39.8171 74.8282 40.8218 74.8825 41.8078 74.7388C42.7939 74.5951 43.7414 74.2565 44.595 73.7425C46.3036 72.7409 47.5466 71.1041 48.0528 69.1894C48.559 67.2747 48.2874 65.2374 47.2971 63.5223C46.3068 61.8071 44.6783 60.5533 42.767 60.0344C40.8557 59.5155 38.8167 59.7736 37.095 60.7525V60.755ZM74.905 60.755C75.7753 61.2379 76.5408 61.8892 77.1568 62.6709C77.7728 63.4527 78.227 64.3493 78.4928 65.3084C78.7587 66.2676 78.8309 67.27 78.7053 68.2574C78.5797 69.2447 78.2587 70.1972 77.7612 71.0592C77.2636 71.9212 76.5994 72.6755 75.8073 73.2781C75.0152 73.8807 74.111 74.3196 73.1475 74.5691C72.184 74.8187 71.1804 74.8739 70.1954 74.7315C69.2103 74.5892 68.2635 74.2521 67.41 73.74C65.7239 72.7282 64.5027 71.0945 64.0097 69.1909C63.5167 67.2873 63.7913 65.2662 64.7743 63.5631C65.7573 61.86 67.3701 60.6113 69.2651 60.086C71.16 59.5608 73.1855 59.801 74.905 60.755Z" stroke="url(#paint1_linear_1148_1413)" stroke-width="2"/>
<path fill-rule="evenodd" clip-rule="evenodd" d="M48.6747 42.6076C48.4608 41.633 48.4435 40.6256 48.6238 39.6443C48.8041 38.6629 49.1784 37.7274 49.7247 36.8926C44.1503 38.5115 39.4173 42.2223 36.5148 47.2492C33.6123 52.2762 32.7649 58.2304 34.1497 63.8676C34.5998 62.9773 35.223 62.1857 35.9829 61.5392C36.7427 60.8927 37.6238 60.4043 38.5747 60.1026C38.2435 56.5002 39.0368 52.8836 40.8455 49.7506C42.6542 46.6176 45.3894 44.1221 48.6747 42.6076ZM63.3247 42.6076C66.6101 44.1221 69.3453 46.6176 71.154 49.7506C72.9627 52.8836 73.756 56.5002 73.4247 60.1026C74.3759 60.4046 75.2572 60.8934 76.017 61.5403C76.7768 62.1872 77.3999 62.9793 77.8497 63.8701C79.2346 58.2329 78.3872 52.2787 75.4847 47.2517C72.5822 42.2248 67.8491 38.514 62.2747 36.8951C62.8208 37.7296 63.1949 38.6647 63.3752 39.6456C63.5555 40.6264 63.5383 41.6334 63.3247 42.6076ZM71.5747 74.7376C70.5785 74.7935 69.5811 74.65 68.641 74.3156C67.7008 73.9812 66.8369 73.4626 66.0997 72.7901C63.1456 74.8778 59.6171 75.9988 55.9997 75.9988C52.3823 75.9988 48.8538 74.8778 45.8997 72.7901C45.1628 73.463 44.2989 73.9821 43.3588 74.317C42.4187 74.6518 41.4212 74.7957 40.4247 74.7401C44.6142 78.7585 50.1946 81.0022 55.9997 81.0022C61.8048 81.0022 67.3853 78.756 71.5747 74.7376Z" fill="url(#paint2_linear_1148_1413)"/>
<defs>
<linearGradient id="paint0_linear_1148_1413" x1="6.80518" y1="5.90874" x2="164.324" y2="98.42" gradientUnits="userSpaceOnUse">
<stop stop-color="#EFE3E6"/>
<stop offset="0.662143" stop-color="#DF496A"/>
<stop offset="1" stop-color="#BF435E"/>
</linearGradient>
<linearGradient id="paint1_linear_1148_1413" x1="36.0184" y1="35.6994" x2="81.0829" y2="64.3354" gradientUnits="userSpaceOnUse">
<stop stop-color="#FF4F76"/>
<stop offset="1" stop-color="#BF435E"/>
</linearGradient>
<linearGradient id="paint2_linear_1148_1413" x1="36.2588" y1="39.2406" x2="82.7036" y2="66.558" gradientUnits="userSpaceOnUse">
<stop stop-color="#FF4F76"/>
<stop offset="1" stop-color="#BF435E"/>
</linearGradient>
</defs>
</svg>
