<svg width="40" height="40" viewBox="0 0 40 40" fill="none" xmlns="http://www.w3.org/2000/svg">
<rect width="40" height="40" rx="20" fill="#EFEFEF"/>
<path d="M15.0302 8.08393C13.7534 8.14417 12.8814 8.34793 12.1192 8.64745C11.3303 8.95489 10.6616 9.36745 9.99636 10.0351C9.33107 10.7028 8.92139 11.3719 8.61611 12.162C8.32066 12.9259 8.1205 13.7986 8.0641 15.0761C8.0077 16.3536 7.99522 16.7643 8.00146 20.023C8.0077 23.2817 8.0221 23.6902 8.08402 24.9704C8.14498 26.247 8.34802 27.1186 8.64755 27.8811C8.95547 28.67 9.36755 29.3384 10.0355 30.0039C10.7034 30.6694 11.3721 31.0782 12.1641 31.3839C12.9273 31.6789 13.8002 31.88 15.0775 31.9359C16.3547 31.9918 16.7659 32.0048 20.0237 31.9986C23.2815 31.9923 23.6916 31.9779 24.9716 31.9172C26.2515 31.8565 27.1186 31.652 27.8813 31.3539C28.6702 31.0453 29.3391 30.6339 30.0042 29.9658C30.6692 29.2976 31.0787 28.628 31.3837 27.8374C31.6794 27.0742 31.8803 26.2013 31.9357 24.925C31.9916 23.6441 32.0048 23.2352 31.9986 19.9769C31.9923 16.7187 31.9777 16.3102 31.917 15.0305C31.8563 13.7508 31.653 12.8818 31.3537 12.1188C31.0453 11.3299 30.6337 10.662 29.966 9.99601C29.2983 9.33001 28.6282 8.92081 27.8379 8.61649C27.0742 8.32105 26.2018 8.11969 24.9245 8.06449C23.6472 8.00929 23.2361 7.99513 19.9771 8.00137C16.7181 8.00761 16.3101 8.02153 15.0302 8.08393ZM15.1703 29.7771C14.0003 29.7262 13.365 29.5318 12.9417 29.3691C12.381 29.1531 11.9817 28.892 11.5597 28.4742C11.1378 28.0563 10.8786 27.6555 10.6597 27.0961C10.4953 26.6727 10.2973 26.0381 10.2426 24.8681C10.1831 23.6036 10.1706 23.2239 10.1636 20.0201C10.1567 16.8164 10.1689 16.4372 10.2244 15.1721C10.2743 14.0031 10.4699 13.3671 10.6324 12.9439C10.8484 12.3826 11.1085 11.9839 11.5273 11.5623C11.9461 11.1406 12.3457 10.8809 12.9057 10.662C13.3286 10.4969 13.9631 10.3006 15.1327 10.2449C16.3982 10.1849 16.7774 10.1729 19.9807 10.1659C23.184 10.159 23.5642 10.171 24.8302 10.2267C25.9992 10.2775 26.6355 10.4712 27.0581 10.6347C27.619 10.8507 28.0181 11.1101 28.4398 11.5296C28.8615 11.9491 29.1214 12.3473 29.3403 12.9084C29.5057 13.3301 29.702 13.9644 29.7572 15.1347C29.8174 16.4002 29.8311 16.7796 29.8369 19.9827C29.8426 23.1857 29.8314 23.5661 29.7759 24.8307C29.7248 26.0007 29.5309 26.6362 29.3679 27.0601C29.1519 27.6205 28.8915 28.0201 28.4725 28.4415C28.0534 28.863 27.6543 29.1226 27.0941 29.3415C26.6717 29.5064 26.0364 29.7032 24.8679 29.7589C23.6023 29.8184 23.2231 29.8309 20.0186 29.8378C16.8141 29.8448 16.4359 29.8318 15.1703 29.7771ZM24.9531 13.5864C24.9535 13.8713 25.0385 14.1495 25.1971 14.3861C25.3558 14.6226 25.581 14.8068 25.8443 14.9154C26.1077 15.0239 26.3973 15.0519 26.6765 14.9959C26.9558 14.9398 27.2122 14.8022 27.4132 14.6004C27.6142 14.3986 27.7509 14.1418 27.806 13.8623C27.861 13.5828 27.8319 13.2933 27.7224 13.0304C27.6129 12.7675 27.4279 12.5429 27.1908 12.3851C26.9536 12.2274 26.675 12.1435 26.3902 12.144C26.0084 12.1448 25.6425 12.2972 25.373 12.5677C25.1035 12.8381 24.9524 13.2046 24.9531 13.5864ZM13.8386 20.012C13.8453 23.4152 16.6091 26.1677 20.0117 26.1613C23.4142 26.1548 26.1687 23.3912 26.1622 19.988C26.1557 16.5848 23.3911 13.8315 19.9881 13.8382C16.5851 13.8449 13.8321 16.6092 13.8386 20.012ZM16 20.0076C15.9985 19.2165 16.2315 18.4427 16.6698 17.784C17.108 17.1253 17.7317 16.6114 18.462 16.3072C19.1924 16.003 19.9965 15.9222 20.7727 16.075C21.549 16.2278 22.2625 16.6073 22.823 17.1656C23.3836 17.724 23.766 18.436 23.9218 19.2116C24.0777 19.9872 24.0001 20.7917 23.6988 21.5232C23.3975 22.2547 22.886 22.8804 22.2291 23.3213C21.5721 23.7621 20.7992 23.9983 20.0081 23.9998C19.4827 24.0009 18.9623 23.8985 18.4766 23.6985C17.9909 23.4985 17.5493 23.2047 17.1771 22.834C16.8049 22.4632 16.5094 22.0228 16.3074 21.5379C16.1054 21.0529 16.001 20.533 16 20.0076Z" fill="#171616"/>
</svg>
