<svg width="40" height="40" viewBox="0 0 40 40" fill="none" xmlns="http://www.w3.org/2000/svg">
<rect width="40" height="40" rx="20" fill="#EFEFEF"/>
<path d="M28.4491 28.4496H24.8931V22.8805C24.8931 21.5525 24.8694 19.8429 23.0436 19.8429C21.1915 19.8429 20.9081 21.2899 20.9081 22.7838V28.4492H17.352V16.9969H20.7658V18.562H20.8136C21.1553 17.9778 21.649 17.4973 22.2421 17.1715C22.8352 16.8457 23.5056 16.6869 24.1819 16.712C27.7861 16.712 28.4506 19.0828 28.4506 22.167L28.4491 28.4496ZM13.3396 15.4314C12.9315 15.4315 12.5325 15.3106 12.1931 15.0839C11.8537 14.8572 11.5891 14.5349 11.4329 14.1578C11.2766 13.7808 11.2357 13.3658 11.3152 12.9655C11.3948 12.5652 11.5912 12.1974 11.8798 11.9088C12.1684 11.6201 12.536 11.4235 12.9363 11.3438C13.3366 11.2641 13.7515 11.3049 14.1286 11.461C14.5057 11.6171 14.8281 11.8816 15.0549 12.2209C15.2817 12.5602 15.4028 12.9592 15.4029 13.3674C15.4029 13.6384 15.3496 13.9067 15.2459 14.1571C15.1423 14.4075 14.9903 14.6351 14.7987 14.8267C14.6071 15.0184 14.3797 15.1705 14.1293 15.2742C13.879 15.378 13.6106 15.4314 13.3396 15.4314ZM15.1176 28.4496H11.5579V16.9969H15.1176V28.4496ZM30.222 8.00164H9.77099C9.30681 7.9964 8.85952 8.17566 8.52744 8.50004C8.19536 8.82442 8.00567 9.26737 8 9.73156V30.2681C8.00547 30.7325 8.19506 31.1758 8.52712 31.5005C8.85919 31.8252 9.30658 32.0048 9.77099 31.9999H30.222C30.6873 32.0057 31.136 31.8266 31.4693 31.5019C31.8027 31.1772 31.9936 30.7334 32 30.2681V9.73008C31.9934 9.26497 31.8024 8.82152 31.469 8.49714C31.1356 8.17277 30.6871 7.99402 30.222 8.00015" fill="#161414"/>
</svg>
