<svg width="111" height="111" viewBox="0 0 111 111" fill="none" xmlns="http://www.w3.org/2000/svg">
<rect x="0.5" y="0.5" width="110" height="110" rx="55" fill="#1B1A1A"/>
<rect x="0.5" y="0.5" width="110" height="110" rx="55" stroke="url(#paint0_linear_1148_1420)"/>
<path d="M79.2199 34.2799C81.6417 36.7092 83.0017 39.9996 83.0017 43.4299C83.0017 46.8602 81.6417 50.1505 79.2199 52.5799L74.6299 57.1399C71.2699 60.4999 66.5299 61.5499 62.2099 60.4099L70.0699 52.5799L72.3499 50.2699L74.6299 47.9899C77.1499 45.4699 77.1499 41.3899 74.6299 38.8699C74.035 38.2639 73.3254 37.7826 72.5425 37.4541C71.7595 37.1255 70.9189 36.9563 70.0699 36.9563C69.2208 36.9563 68.3802 37.1255 67.5972 37.4541C66.8143 37.7826 66.1047 38.2639 65.5099 38.8699L63.1999 41.1499L53.0599 51.2899C51.9499 46.9699 52.9999 42.2299 56.3599 38.8699L60.9199 34.2799C63.3492 31.858 66.6396 30.498 70.0699 30.498C73.5002 30.498 76.7905 31.858 79.2199 34.2799ZM51.7699 66.2899L67.7899 50.2699C69.0499 49.0099 69.0499 46.9699 67.7899 45.7099C66.4699 44.4199 64.3999 44.5399 63.1999 45.7099L47.2099 61.7299C45.9499 62.9899 45.9499 65.0299 47.2099 66.2899C48.5299 67.5799 50.5999 67.4599 51.7699 66.2899ZM49.4899 73.1599L61.9099 60.7099C63.0499 65.0299 61.9999 69.7699 58.6399 73.1299L54.0799 77.7199C51.6505 80.1417 48.3602 81.5017 44.9299 81.5017C41.4996 81.5017 38.2092 80.1417 35.7799 77.7199C33.358 75.2905 31.998 72.0002 31.998 68.5699C31.998 65.1396 33.358 61.8492 35.7799 59.4199L40.3699 54.8599C43.7299 51.4999 48.4699 50.4499 52.7899 51.5599L40.3699 64.0099C37.8199 66.5299 37.8199 70.6099 40.3699 73.1599C42.8899 75.6799 46.9699 75.6799 49.4899 73.1599Z" fill="url(#paint1_linear_1148_1420)"/>
<defs>
<linearGradient id="paint0_linear_1148_1420" x1="6.80518" y1="5.90874" x2="164.324" y2="98.42" gradientUnits="userSpaceOnUse">
<stop stop-color="#EFE3E6"/>
<stop offset="0.662143" stop-color="#DF496A"/>
<stop offset="1" stop-color="#BF435E"/>
</linearGradient>
<linearGradient id="paint1_linear_1148_1420" x1="35.125" y1="33.2131" x2="88.302" y2="63.8716" gradientUnits="userSpaceOnUse">
<stop stop-color="#FF4F76"/>
<stop offset="1" stop-color="#BF435E"/>
</linearGradient>
</defs>
</svg>
