<svg width="24" height="24" viewBox="0 0 24 24" fill="none" xmlns="http://www.w3.org/2000/svg">
<path d="M12 13.4299C13.7231 13.4299 15.12 12.0331 15.12 10.3099C15.12 8.58681 13.7231 7.18994 12 7.18994C10.2769 7.18994 8.88 8.58681 8.88 10.3099C8.88 12.0331 10.2769 13.4299 12 13.4299Z" stroke="url(#paint0_linear_704_761)" stroke-width="1.5"/>
<path d="M3.61995 8.49C5.58995 -0.169998 18.42 -0.159997 20.38 8.5C21.53 13.58 18.37 17.88 15.6 20.54C13.59 22.48 10.41 22.48 8.38995 20.54C5.62995 17.88 2.46995 13.57 3.61995 8.49Z" stroke="url(#paint1_linear_704_761)" stroke-width="1.5"/>
<defs>
<linearGradient id="paint0_linear_704_761" x1="9.26257" y1="7.52211" x2="15.7685" y2="11.273" gradientUnits="userSpaceOnUse">
<stop stop-color="#FF4F76"/>
<stop offset="1" stop-color="#BF435E"/>
</linearGradient>
<linearGradient id="paint1_linear_704_761" x1="4.43448" y1="3.06437" x2="23.6421" y2="12.6155" gradientUnits="userSpaceOnUse">
<stop stop-color="#FF4F76"/>
<stop offset="1" stop-color="#BF435E"/>
</linearGradient>
</defs>
</svg>
