<svg width="76" height="1048" viewBox="0 0 76 1048" fill="none" xmlns="http://www.w3.org/2000/svg">
<path d="M21.4357 414.171L20.4445 414.304L21.4357 414.171ZM69.991 10.7207C70.0648 11.2679 69.6809 11.7715 69.1336 11.8453L60.2142 13.0475C59.6669 13.1213 59.1634 12.7374 59.0896 12.1901C59.0158 11.6427 59.3997 11.1393 59.9471 11.0654L67.8754 9.99683L66.8067 2.06848C66.7329 1.52112 67.1168 1.0177 67.6642 0.943848C68.2115 0.870117 68.715 1.25403 68.7888 1.80127L69.991 10.7207ZM72.5 1046.5V1047.5C55.8108 1047.5 43.3683 1045.27 34.3265 1040.29C25.2303 1035.28 19.6773 1027.54 16.6671 1016.81C13.6705 1006.13 13.1844 992.45 14.1814 975.452C15.1791 958.442 17.6701 938.01 20.6822 913.797C32.7311 816.942 53.2033 658.958 20.4445 414.304L21.4357 414.171L22.4268 414.038C55.2193 658.945 34.7236 817.126 22.6669 914.044C19.6526 938.275 17.1711 958.637 16.178 975.569C15.1841 992.513 15.6889 1005.92 18.5928 1016.27C21.4831 1026.58 26.7401 1033.82 35.2914 1038.53C43.8969 1043.27 55.9392 1045.5 72.5 1045.5V1046.5ZM21.4357 414.171L20.4445 414.304C4.05299 291.886 -1.17463 205.427 0.213446 144.597C1.60094 83.7916 9.59926 48.4944 19.7441 28.4753C24.8235 18.4521 30.4629 12.2152 36.1221 8.54395C41.7906 4.86658 47.4191 3.80261 52.3954 4.02905C57.357 4.25488 61.6516 5.76147 64.6951 7.20056C66.2195 7.92151 67.438 8.62915 68.2789 9.1593C68.6996 9.42444 69.0264 9.64551 69.2505 9.80225C69.3626 9.88062 69.449 9.94287 69.5086 9.98645C69.5385 10.0083 69.5616 10.0255 69.5779 10.0377C69.5861 10.0437 69.5926 10.0486 69.5973 10.0522C69.5997 10.054 69.6019 10.0557 69.6031 10.0566C69.6049 10.058 69.6063 10.0591 69 10.8542C68.3937 11.6494 68.3942 11.6499 68.3943 11.6499C68.3938 11.6495 68.3935 11.6493 68.3924 11.6484C68.3903 11.6469 68.3864 11.644 68.3809 11.6399C68.3699 11.6317 68.3522 11.6185 68.3279 11.6007C68.2793 11.5652 68.2045 11.5112 68.1045 11.4413C67.9045 11.3015 67.6042 11.0981 67.2124 10.8512C66.4284 10.3569 65.2807 9.68982 63.8401 9.00867C60.9536 7.64368 56.9232 6.23718 52.3045 6.02698C47.7004 5.8175 42.4933 6.79468 37.2106 10.2218C31.9186 13.6549 26.4913 19.5856 21.5281 29.3795C11.588 48.9944 3.59832 83.929 2.21293 144.642C0.828111 205.33 6.04275 291.676 22.4268 414.038L21.4357 414.171Z" fill="#646262"/>
<path d="M69.7071 163.707C70.0976 163.317 70.0976 162.683 69.7071 162.293L63.3431 155.929C62.9526 155.538 62.3195 155.538 61.9289 155.929C61.5384 156.319 61.5384 156.953 61.9289 157.343L67.5858 163L61.9289 168.657C61.5384 169.047 61.5384 169.681 61.9289 170.071C62.3195 170.462 62.9526 170.462 63.3431 170.071L69.7071 163.707ZM5 163V164H69V163V162H5V163Z" fill="url(#paint0_linear_1013_959)"/>
<path d="M69.7071 309.707C70.0976 309.317 70.0976 308.683 69.7071 308.293L63.3431 301.929C62.9526 301.538 62.3195 301.538 61.9289 301.929C61.5384 302.319 61.5384 302.953 61.9289 303.343L67.5858 309L61.9289 314.657C61.5384 315.047 61.5384 315.681 61.9289 316.071C62.3195 316.462 62.9526 316.462 63.3431 316.071L69.7071 309.707ZM22 309V310H69V309V308H22V309Z" fill="url(#paint1_linear_1013_959)"/>
<path d="M69.7071 455.707C70.0976 455.317 70.0976 454.683 69.7071 454.293L63.3431 447.929C62.9526 447.538 62.3195 447.538 61.9289 447.929C61.5384 448.319 61.5384 448.953 61.9289 449.343L67.5858 455L61.9289 460.657C61.5384 461.047 61.5384 461.681 61.9289 462.071C62.3195 462.462 62.9526 462.462 63.3431 462.071L69.7071 455.707ZM42 455V456H69V455V454H42V455Z" fill="url(#paint2_linear_1013_959)"/>
<path d="M71.7071 601.707C72.0976 601.317 72.0976 600.683 71.7071 600.293L65.3431 593.929C64.9526 593.538 64.3195 593.538 63.9289 593.929C63.5384 594.319 63.5384 594.953 63.9289 595.343L69.5858 601L63.9289 606.657C63.5384 607.047 63.5384 607.681 63.9289 608.071C64.3195 608.462 64.9526 608.462 65.3431 608.071L71.7071 601.707ZM44 601V602H71V601V600H44V601Z" fill="url(#paint3_linear_1013_959)"/>
<path d="M73.7071 747.707C74.0976 747.317 74.0976 746.683 73.7071 746.293L67.3431 739.929C66.9526 739.538 66.3195 739.538 65.9289 739.929C65.5384 740.319 65.5384 740.953 65.9289 741.343L71.5858 747L65.9289 752.657C65.5384 753.047 65.5384 753.681 65.9289 754.071C66.3195 754.462 66.9526 754.462 67.3431 754.071L73.7071 747.707ZM48 747V748H73V747V746H48V747Z" fill="url(#paint4_linear_1013_959)"/>
<path d="M75.7071 893.707C76.0976 893.317 76.0976 892.683 75.7071 892.293L69.3431 885.929C68.9526 885.538 68.3195 885.538 67.9289 885.929C67.5384 886.319 67.5384 886.953 67.9289 887.343L73.5858 893L67.9289 898.657C67.5384 899.047 67.5384 899.681 67.9289 900.071C68.3195 900.462 68.9526 900.462 69.3431 900.071L75.7071 893.707ZM24 893V894H75V893V892H24V893Z" fill="url(#paint5_linear_1013_959)"/>
<defs>
<linearGradient id="paint0_linear_1013_959" x1="8.92371" y1="163.053" x2="8.98896" y2="165.461" gradientUnits="userSpaceOnUse">
<stop stop-color="#FF4F76"/>
<stop offset="1" stop-color="#BF435E"/>
</linearGradient>
<linearGradient id="paint1_linear_1013_959" x1="24.8815" y1="309.053" x2="24.9703" y2="311.459" gradientUnits="userSpaceOnUse">
<stop stop-color="#FF4F76"/>
<stop offset="1" stop-color="#BF435E"/>
</linearGradient>
<linearGradient id="paint2_linear_1013_959" x1="43.6553" y1="455.053" x2="43.8095" y2="457.453" gradientUnits="userSpaceOnUse">
<stop stop-color="#FF4F76"/>
<stop offset="1" stop-color="#BF435E"/>
</linearGradient>
<linearGradient id="paint3_linear_1013_959" x1="45.6553" y1="601.053" x2="45.8095" y2="603.453" gradientUnits="userSpaceOnUse">
<stop stop-color="#FF4F76"/>
<stop offset="1" stop-color="#BF435E"/>
</linearGradient>
<linearGradient id="paint4_linear_1013_959" x1="49.5327" y1="747.053" x2="49.6991" y2="749.451" gradientUnits="userSpaceOnUse">
<stop stop-color="#FF4F76"/>
<stop offset="1" stop-color="#BF435E"/>
</linearGradient>
<linearGradient id="paint5_linear_1013_959" x1="27.1267" y1="893.053" x2="27.2086" y2="895.46" gradientUnits="userSpaceOnUse">
<stop stop-color="#FF4F76"/>
<stop offset="1" stop-color="#BF435E"/>
</linearGradient>
</defs>
</svg>
