<svg width="60" height="60" viewBox="0 0 60 60" fill="none" xmlns="http://www.w3.org/2000/svg">
<g clip-path="url(#clip0_1089_1151)">
<rect width="60" height="60" rx="30" fill="#0E0E0E"/>
<path d="M25.4148 37V34.3409L31.6278 28.5881C32.1563 28.0767 32.5994 27.6165 32.9574 27.2074C33.321 26.7983 33.5966 26.3977 33.7841 26.0057C33.9716 25.608 34.0653 25.179 34.0653 24.7188C34.0653 24.2074 33.9489 23.767 33.7159 23.3977C33.483 23.0227 33.1648 22.7358 32.7614 22.5369C32.358 22.3324 31.9006 22.2301 31.3892 22.2301C30.8551 22.2301 30.3892 22.3381 29.9915 22.554C29.5938 22.7699 29.2869 23.0795 29.071 23.483C28.8551 23.8864 28.7472 24.3665 28.7472 24.9233H25.2443C25.2443 23.7812 25.5028 22.7898 26.0199 21.9489C26.5369 21.108 27.2614 20.4574 28.1932 19.9972C29.125 19.5369 30.1989 19.3068 31.4148 19.3068C32.6648 19.3068 33.7528 19.5284 34.679 19.9716C35.6108 20.4091 36.3352 21.017 36.8523 21.7955C37.3693 22.5739 37.6278 23.4659 37.6278 24.4716C37.6278 25.1307 37.4972 25.7812 37.2358 26.4233C36.9801 27.0653 36.5227 27.7784 35.8636 28.5625C35.2045 29.3409 34.2756 30.2756 33.0767 31.3665L30.5284 33.8636V33.983H37.858V37H25.4148Z" fill="white"/>
</g>
<rect x="0.5" y="0.5" width="59" height="59" rx="29.5" stroke="url(#paint0_linear_1089_1151)"/>
<defs>
<linearGradient id="paint0_linear_1089_1151" x1="3.67848" y1="3.19391" x2="88.8236" y2="53.2" gradientUnits="userSpaceOnUse">
<stop stop-color="#EFE3E6"/>
<stop offset="0.662143" stop-color="#DF496A"/>
<stop offset="1" stop-color="#BF435E"/>
</linearGradient>
<clipPath id="clip0_1089_1151">
<rect width="60" height="60" rx="30" fill="white"/>
</clipPath>
</defs>
</svg>
