<svg width="60" height="60" viewBox="0 0 60 60" fill="none" xmlns="http://www.w3.org/2000/svg">
<g clip-path="url(#clip0_1089_1160)">
<rect width="60" height="60" rx="30" fill="#0E0E0E"/>
<path d="M31.8665 37.2386C30.5938 37.2386 29.4602 37.0199 28.4659 36.5824C27.4773 36.1392 26.696 35.5312 26.1222 34.7585C25.554 33.9801 25.2614 33.0824 25.2443 32.0653H28.9602C28.983 32.4915 29.1222 32.8665 29.3778 33.1903C29.6392 33.5085 29.9858 33.7557 30.4176 33.9318C30.8494 34.108 31.3352 34.196 31.875 34.196C32.4375 34.196 32.9347 34.0966 33.3665 33.8977C33.7983 33.6989 34.1364 33.4233 34.3807 33.071C34.625 32.7187 34.7472 32.3125 34.7472 31.8523C34.7472 31.3864 34.6165 30.9744 34.3551 30.6165C34.0994 30.2528 33.7301 29.9687 33.2472 29.7642C32.7699 29.5597 32.2017 29.4574 31.5426 29.4574H29.9148V26.7472H31.5426C32.0994 26.7472 32.5909 26.6506 33.017 26.4574C33.4489 26.2642 33.7841 25.9972 34.0227 25.6562C34.2614 25.3097 34.3807 24.9062 34.3807 24.446C34.3807 24.0085 34.2756 23.625 34.0653 23.2955C33.8608 22.9602 33.571 22.6989 33.196 22.5114C32.8267 22.3239 32.3949 22.2301 31.9006 22.2301C31.4006 22.2301 30.9432 22.321 30.5284 22.5028C30.1136 22.679 29.7812 22.9318 29.5312 23.2614C29.2812 23.5909 29.1477 23.9773 29.1307 24.4205H25.5938C25.6108 23.4148 25.8977 22.5284 26.4545 21.7614C27.0114 20.9943 27.7614 20.3949 28.7045 19.9631C29.6534 19.5256 30.7244 19.3068 31.9176 19.3068C33.1222 19.3068 34.1761 19.5256 35.0795 19.9631C35.983 20.4006 36.6847 20.9915 37.1847 21.7358C37.6903 22.4744 37.9403 23.304 37.9347 24.2244C37.9403 25.2017 37.6364 26.017 37.0227 26.6705C36.4148 27.3239 35.6222 27.7386 34.6449 27.9148V28.0511C35.929 28.2159 36.9063 28.6619 37.5767 29.3892C38.2528 30.1108 38.5881 31.0142 38.5824 32.0994C38.5881 33.0938 38.3011 33.9773 37.7216 34.75C37.1477 35.5227 36.3551 36.1307 35.3438 36.5739C34.3324 37.017 33.1733 37.2386 31.8665 37.2386Z" fill="white"/>
</g>
<rect x="0.5" y="0.5" width="59" height="59" rx="29.5" stroke="url(#paint0_linear_1089_1160)"/>
<defs>
<linearGradient id="paint0_linear_1089_1160" x1="3.67848" y1="3.19391" x2="88.8236" y2="53.2" gradientUnits="userSpaceOnUse">
<stop stop-color="#EFE3E6"/>
<stop offset="0.662143" stop-color="#DF496A"/>
<stop offset="1" stop-color="#BF435E"/>
</linearGradient>
<clipPath id="clip0_1089_1160">
<rect width="60" height="60" rx="30" fill="white"/>
</clipPath>
</defs>
</svg>
