<svg width="60" height="60" viewBox="0 0 60 60" fill="none" xmlns="http://www.w3.org/2000/svg">
<g clip-path="url(#clip0_1089_1184)">
<rect width="60" height="60" rx="30" fill="#0E0E0E"/>
<path d="M31.7898 37.2386C30.5852 37.2386 29.5114 37.017 28.5682 36.5739C27.6307 36.1307 26.8864 35.5199 26.3352 34.7415C25.7841 33.9631 25.4972 33.071 25.4744 32.0653H29.054C29.0938 32.7415 29.3778 33.2898 29.9062 33.7102C30.4347 34.1307 31.0625 34.3409 31.7898 34.3409C32.3693 34.3409 32.8807 34.2131 33.3239 33.9574C33.7727 33.696 34.1222 33.3352 34.3722 32.875C34.6278 32.4091 34.7557 31.875 34.7557 31.2727C34.7557 30.6591 34.625 30.1193 34.3636 29.6534C34.108 29.1875 33.7528 28.8239 33.2983 28.5625C32.8438 28.3011 32.3239 28.1676 31.7386 28.1619C31.2273 28.1619 30.7301 28.267 30.2472 28.4773C29.7699 28.6875 29.3977 28.9744 29.1307 29.3381L25.8494 28.75L26.6761 19.5455H37.3466V22.5625H29.7188L29.267 26.9347H29.3693C29.6761 26.5028 30.1392 26.1449 30.7585 25.8608C31.3778 25.5767 32.071 25.4347 32.8381 25.4347C33.8892 25.4347 34.8267 25.6818 35.6506 26.1761C36.4744 26.6705 37.125 27.3494 37.6023 28.2131C38.0795 29.071 38.3153 30.0597 38.3097 31.179C38.3153 32.3551 38.0426 33.4006 37.4915 34.3153C36.946 35.2244 36.1818 35.9403 35.1989 36.4631C34.2216 36.9801 33.0852 37.2386 31.7898 37.2386Z" fill="white"/>
</g>
<rect x="0.5" y="0.5" width="59" height="59" rx="29.5" stroke="url(#paint0_linear_1089_1184)"/>
<defs>
<linearGradient id="paint0_linear_1089_1184" x1="3.67848" y1="3.19391" x2="88.8236" y2="53.2" gradientUnits="userSpaceOnUse">
<stop stop-color="#EFE3E6"/>
<stop offset="0.662143" stop-color="#DF496A"/>
<stop offset="1" stop-color="#BF435E"/>
</linearGradient>
<clipPath id="clip0_1089_1184">
<rect width="60" height="60" rx="30" fill="white"/>
</clipPath>
</defs>
</svg>
