<svg width="60" height="60" viewBox="0 0 60 60" fill="none" xmlns="http://www.w3.org/2000/svg">
<g clip-path="url(#clip0_1089_1193)">
<rect width="60" height="60" rx="30" fill="#0E0E0E"/>
<path d="M30.1136 37.2386C29.2159 37.233 28.3494 37.0824 27.5142 36.7869C26.6847 36.4915 25.9403 36.0114 25.2812 35.3466C24.6222 34.6818 24.0994 33.8011 23.7131 32.7045C23.3324 31.608 23.142 30.2614 23.142 28.6648C23.1477 27.1989 23.3153 25.8892 23.6449 24.7358C23.9801 23.5767 24.4574 22.5937 25.0767 21.7869C25.7017 20.9801 26.4489 20.3665 27.3182 19.946C28.1875 19.5199 29.1619 19.3068 30.2415 19.3068C31.4063 19.3068 32.4347 19.5341 33.3267 19.9886C34.2188 20.4375 34.9347 21.0483 35.4744 21.821C36.0199 22.5938 36.3494 23.4602 36.4631 24.4205H32.8239C32.6818 23.8125 32.3835 23.3352 31.929 22.9886C31.4744 22.642 30.9119 22.4688 30.2415 22.4688C29.1051 22.4688 28.2415 22.9631 27.6506 23.9517C27.0653 24.9403 26.767 26.2841 26.7557 27.983H26.875C27.1364 27.4659 27.4886 27.0256 27.9318 26.6619C28.3807 26.2926 28.8892 26.0114 29.4574 25.8182C30.0312 25.6193 30.6364 25.5199 31.2727 25.5199C32.3068 25.5199 33.2273 25.7642 34.0341 26.2528C34.8409 26.7358 35.4773 27.4006 35.9432 28.2472C36.4091 29.0937 36.642 30.0625 36.642 31.1534C36.642 32.3352 36.3665 33.3864 35.8153 34.3068C35.2699 35.2273 34.5057 35.9489 33.5227 36.4716C32.5455 36.9886 31.4091 37.2443 30.1136 37.2386ZM30.0966 34.3409C30.6648 34.3409 31.1733 34.2045 31.6222 33.9318C32.071 33.6591 32.4233 33.2898 32.679 32.8239C32.9347 32.358 33.0625 31.8352 33.0625 31.2557C33.0625 30.6761 32.9347 30.1562 32.679 29.696C32.429 29.2358 32.0824 28.8693 31.6392 28.5966C31.196 28.3239 30.6903 28.1875 30.1222 28.1875C29.696 28.1875 29.3011 28.267 28.9375 28.4261C28.5795 28.5852 28.2642 28.8068 27.9915 29.0909C27.7244 29.375 27.5142 29.7045 27.3608 30.0795C27.2074 30.4489 27.1307 30.8437 27.1307 31.2642C27.1307 31.8267 27.2585 32.3409 27.5142 32.8068C27.7756 33.2727 28.1278 33.6449 28.571 33.9233C29.0199 34.2017 29.5284 34.3409 30.0966 34.3409Z" fill="white"/>
</g>
<rect x="0.5" y="0.5" width="59" height="59" rx="29.5" stroke="url(#paint0_linear_1089_1193)"/>
<defs>
<linearGradient id="paint0_linear_1089_1193" x1="3.67848" y1="3.19391" x2="88.8236" y2="53.2" gradientUnits="userSpaceOnUse">
<stop stop-color="#EFE3E6"/>
<stop offset="0.662143" stop-color="#DF496A"/>
<stop offset="1" stop-color="#BF435E"/>
</linearGradient>
<clipPath id="clip0_1089_1193">
<rect width="60" height="60" rx="30" fill="white"/>
</clipPath>
</defs>
</svg>
