<svg width="111" height="111" viewBox="0 0 111 111" fill="none" xmlns="http://www.w3.org/2000/svg">
<rect x="0.5" y="0.5" width="110" height="110" rx="55" stroke="url(#paint0_linear_1148_1386)"/>
<path d="M56 56C60.6825 56 64.925 57.55 68.0375 59.7175C70.995 61.78 73.5 64.845 73.5 68.1425C73.5 69.9525 72.7275 71.4525 71.51 72.5675C70.365 73.62 68.87 74.3025 67.33 74.7675C64.2525 75.7 60.2 76 56 76C51.8 76 47.7475 75.7 44.67 74.7675C43.13 74.3025 41.635 73.62 40.4875 72.5675C39.275 71.455 38.5 69.955 38.5 68.145C38.5 64.8475 41.005 61.7825 43.9625 59.72C47.075 57.55 51.3175 56 56 56ZM73.5 58.5C76.11 58.5 78.48 59.3625 80.2325 60.5825C81.8325 61.7 83.5 63.5575 83.5 65.8225C83.5 67.115 82.9375 68.1875 82.1 68.955C81.335 69.6575 80.39 70.07 79.5275 70.33C78.3525 70.685 76.965 70.8675 75.525 70.9475C75.83 70.085 76 69.1475 76 68.1425C76 64.305 73.6025 61.045 70.92 58.7825C71.7673 58.5953 72.6323 58.5006 73.5 58.5ZM38.5 58.5C39.395 58.5033 40.255 58.5975 41.08 58.7825C38.4 61.045 36 64.305 36 68.1425C36 69.1475 36.17 70.085 36.475 70.9475C35.035 70.8675 33.65 70.685 32.4725 70.33C31.61 70.07 30.665 69.6575 29.8975 68.955C29.4576 68.5609 29.1057 68.0784 28.8649 67.5391C28.6241 66.9997 28.4998 66.4157 28.5 65.825C28.5 63.5625 30.165 61.7025 31.7675 60.585C33.7496 59.2261 36.0968 58.4992 38.5 58.5ZM72.25 43.5C73.9076 43.5 75.4973 44.1585 76.6694 45.3306C77.8415 46.5027 78.5 48.0924 78.5 49.75C78.5 51.4076 77.8415 52.9973 76.6694 54.1694C75.4973 55.3415 73.9076 56 72.25 56C70.5924 56 69.0027 55.3415 67.8306 54.1694C66.6585 52.9973 66 51.4076 66 49.75C66 48.0924 66.6585 46.5027 67.8306 45.3306C69.0027 44.1585 70.5924 43.5 72.25 43.5ZM39.75 43.5C41.4076 43.5 42.9973 44.1585 44.1694 45.3306C45.3415 46.5027 46 48.0924 46 49.75C46 51.4076 45.3415 52.9973 44.1694 54.1694C42.9973 55.3415 41.4076 56 39.75 56C38.0924 56 36.5027 55.3415 35.3306 54.1694C34.1585 52.9973 33.5 51.4076 33.5 49.75C33.5 48.0924 34.1585 46.5027 35.3306 45.3306C36.5027 44.1585 38.0924 43.5 39.75 43.5ZM56 33.5C58.6522 33.5 61.1957 34.5536 63.0711 36.4289C64.9464 38.3043 66 40.8478 66 43.5C66 46.1522 64.9464 48.6957 63.0711 50.5711C61.1957 52.4464 58.6522 53.5 56 53.5C53.3478 53.5 50.8043 52.4464 48.9289 50.5711C47.0536 48.6957 46 46.1522 46 43.5C46 40.8478 47.0536 38.3043 48.9289 36.4289C50.8043 34.5536 53.3478 33.5 56 33.5Z" fill="url(#paint1_linear_1148_1386)"/>
<defs>
<linearGradient id="paint0_linear_1148_1386" x1="6.80518" y1="5.90874" x2="122.535" y2="72.6315" gradientUnits="userSpaceOnUse">
<stop stop-color="#FF4F76"/>
<stop offset="1" stop-color="#BF435E"/>
</linearGradient>
<linearGradient id="paint1_linear_1148_1386" x1="31.8719" y1="35.7624" x2="80.9537" y2="72.3827" gradientUnits="userSpaceOnUse">
<stop stop-color="#FF4F76"/>
<stop offset="1" stop-color="#BF435E"/>
</linearGradient>
</defs>
</svg>
