<svg width="1440" height="139" viewBox="0 0 1440 139" fill="none" xmlns="http://www.w3.org/2000/svg">
<path d="M25.7884 93.4886H49.3111L61.1364 108.702L72.7699 122.253L94.6946 149.739H68.8707L53.7855 131.202L46.0511 120.207L25.7884 93.4886ZM96.6761 73.5455C96.6761 87.821 93.9702 99.9659 88.5582 109.98C83.1889 119.994 75.8594 127.643 66.5696 132.928C57.3224 138.169 46.9247 140.79 35.3764 140.79C23.7429 140.79 13.3026 138.148 4.0554 132.864C-5.19176 127.58 -12.5 119.93 -17.8693 109.916C-23.2386 99.902 -25.9233 87.7784 -25.9233 73.5455C-25.9233 59.2699 -23.2386 47.125 -17.8693 37.1108C-12.5 27.0966 -5.19176 19.4687 4.0554 14.2273C13.3026 8.94318 23.7429 6.30113 35.3764 6.30113C46.9247 6.30113 57.3224 8.94318 66.5696 14.2273C75.8594 19.4687 83.1889 27.0966 88.5582 37.1108C93.9702 47.125 96.6761 59.2699 96.6761 73.5455ZM68.6151 73.5455C68.6151 64.2983 67.2301 56.5 64.4602 50.1506C61.733 43.8011 57.8764 38.9858 52.8906 35.7045C47.9048 32.4233 42.0668 30.7827 35.3764 30.7827C28.6861 30.7827 22.848 32.4233 17.8622 35.7045C12.8764 38.9858 8.99858 43.8011 6.22869 50.1506C3.50142 56.5 2.13779 64.2983 2.13779 73.5455C2.13779 82.7926 3.50142 90.5909 6.22869 96.9403C8.99858 103.29 12.8764 108.105 17.8622 111.386C22.848 114.668 28.6861 116.308 35.3764 116.308C42.0668 116.308 47.9048 114.668 52.8906 111.386C57.8764 108.105 61.733 103.29 64.4602 96.9403C67.2301 90.5909 68.6151 82.7926 68.6151 73.5455ZM179.629 97.196V40.8182H206.859V139H180.716V121.166H179.693C177.477 126.919 173.791 131.543 168.635 135.037C163.521 138.531 157.278 140.278 149.906 140.278C143.343 140.278 137.569 138.787 132.583 135.804C127.598 132.821 123.699 128.581 120.886 123.084C118.116 117.587 116.71 111.003 116.667 103.332V40.8182H143.897V98.4744C143.94 104.27 145.495 108.851 148.564 112.217C151.632 115.584 155.744 117.267 160.9 117.267C164.181 117.267 167.25 116.521 170.105 115.03C172.96 113.496 175.261 111.237 177.008 108.254C178.798 105.271 179.672 101.585 179.629 97.196ZM273.384 140.918C263.285 140.918 254.592 138.872 247.305 134.781C240.06 130.648 234.478 124.81 230.558 117.267C226.637 109.682 224.677 100.712 224.677 90.3565C224.677 80.2571 226.637 71.3935 230.558 63.7656C234.478 56.1378 239.996 50.1932 247.113 45.9318C254.272 41.6705 262.667 39.5398 272.298 39.5398C278.775 39.5398 284.805 40.5838 290.387 42.6719C296.012 44.7173 300.913 47.8068 305.089 51.9403C309.308 56.0739 312.589 61.2727 314.933 67.5369C317.276 73.7585 318.448 81.0455 318.448 89.3977V96.8764H235.543V80.0014H292.816C292.816 76.081 291.964 72.608 290.259 69.5824C288.555 66.5568 286.19 64.1918 283.164 62.4872C280.181 60.7401 276.708 59.8665 272.745 59.8665C268.612 59.8665 264.947 60.8253 261.751 62.7429C258.597 64.6179 256.126 67.1534 254.336 70.3494C252.546 73.5028 251.63 77.0185 251.587 80.8963V96.9403C251.587 101.798 252.482 105.996 254.272 109.533C256.104 113.07 258.683 115.797 262.006 117.714C265.33 119.632 269.272 120.591 273.832 120.591C276.857 120.591 279.627 120.165 282.141 119.312C284.656 118.46 286.808 117.182 288.597 115.477C290.387 113.773 291.751 111.685 292.688 109.213L317.873 110.875C316.594 116.926 313.974 122.21 310.011 126.727C306.09 131.202 301.019 134.696 294.798 137.21C288.619 139.682 281.481 140.918 273.384 140.918ZM380.962 140.918C370.863 140.918 362.17 138.872 354.883 134.781C347.638 130.648 342.056 124.81 338.136 117.267C334.215 109.682 332.255 100.712 332.255 90.3565C332.255 80.2571 334.215 71.3935 338.136 63.7656C342.056 56.1378 347.575 50.1932 354.691 45.9318C361.85 41.6705 370.245 39.5398 379.876 39.5398C386.353 39.5398 392.383 40.5838 397.965 42.6719C403.59 44.7173 408.491 47.8068 412.667 51.9403C416.886 56.0739 420.167 61.2727 422.511 67.5369C424.854 73.7585 426.026 81.0455 426.026 89.3977V96.8764H343.121V80.0014H400.394C400.394 76.081 399.542 72.608 397.837 69.5824C396.133 66.5568 393.768 64.1918 390.742 62.4872C387.759 60.7401 384.286 59.8665 380.323 59.8665C376.19 59.8665 372.525 60.8253 369.329 62.7429C366.175 64.6179 363.704 67.1534 361.914 70.3494C360.124 73.5028 359.208 77.0185 359.165 80.8963V96.9403C359.165 101.798 360.06 105.996 361.85 109.533C363.683 113.07 366.261 115.797 369.585 117.714C372.908 119.632 376.85 120.591 381.41 120.591C384.435 120.591 387.205 120.165 389.719 119.312C392.234 118.46 394.386 117.182 396.175 115.477C397.965 113.773 399.329 111.685 400.266 109.213L425.451 110.875C424.173 116.926 421.552 122.21 417.589 126.727C413.668 131.202 408.597 134.696 402.376 137.21C396.197 139.682 389.059 140.918 380.962 140.918ZM471.026 82.2386V139H443.796V40.8182H469.748V58.1406H470.898C473.072 52.4304 476.715 47.9133 481.829 44.5895C486.942 41.223 493.143 39.5398 500.43 39.5398C507.248 39.5398 513.192 41.0312 518.263 44.0142C523.335 46.9972 527.276 51.2585 530.089 56.7983C532.901 62.2955 534.308 68.858 534.308 76.4858V139H507.077V81.3438C507.12 75.3352 505.586 70.6477 502.475 67.2812C499.364 63.8722 495.082 62.1676 489.627 62.1676C485.962 62.1676 482.724 62.956 479.911 64.5327C477.141 66.1094 474.968 68.4105 473.391 71.4361C471.857 74.419 471.069 78.0199 471.026 82.2386ZM620.504 139H590.845L636.037 8.09091H671.705L716.832 139H687.173L654.382 38.0057H653.359L620.504 139ZM618.651 87.544H688.707V109.149H618.651V87.544ZM732.077 139V40.8182H758.477V57.9489H759.499C761.289 51.8551 764.293 47.2528 768.512 44.142C772.731 40.9886 777.589 39.4119 783.086 39.4119C784.45 39.4119 785.92 39.4972 787.496 39.6676C789.073 39.8381 790.458 40.0724 791.651 40.3707V64.5327C790.373 64.1491 788.604 63.8082 786.346 63.5099C784.087 63.2116 782.021 63.0625 780.146 63.0625C776.14 63.0625 772.56 63.9361 769.407 65.6832C766.296 67.3878 763.825 69.7741 761.992 72.8423C760.202 75.9105 759.308 79.4474 759.308 83.4531V139H732.077ZM805.73 139V40.8182H832.96V139H805.73ZM819.409 28.1619C815.36 28.1619 811.887 26.8196 808.99 24.1349C806.135 21.4077 804.707 18.1477 804.707 14.3551C804.707 10.6051 806.135 7.38778 808.99 4.70312C811.887 1.97585 815.36 0.612209 819.409 0.612209C823.457 0.612209 826.909 1.97585 829.764 4.70312C832.662 7.38778 834.11 10.6051 834.11 14.3551C834.11 18.1477 832.662 21.4077 829.764 24.1349C826.909 26.8196 823.457 28.1619 819.409 28.1619ZM906.996 40.8182V61.2727H847.869V40.8182H906.996ZM861.293 17.2955H888.523V108.83C888.523 111.344 888.906 113.304 889.673 114.71C890.44 116.074 891.506 117.033 892.869 117.587C894.276 118.141 895.895 118.418 897.727 118.418C899.006 118.418 900.284 118.311 901.562 118.098C902.841 117.842 903.821 117.651 904.503 117.523L908.786 137.786C907.422 138.212 905.504 138.702 903.033 139.256C900.561 139.852 897.557 140.214 894.02 140.342C887.457 140.598 881.705 139.724 876.761 137.722C871.861 135.719 868.047 132.608 865.32 128.389C862.592 124.17 861.25 118.844 861.293 112.409V17.2955ZM1082.41 53.9219H1054.41C1053.9 50.2997 1052.86 47.0824 1051.28 44.2699C1049.7 41.4148 1047.68 38.9858 1045.21 36.983C1042.74 34.9801 1039.88 33.446 1036.64 32.3807C1033.45 31.3153 1029.97 30.7827 1026.22 30.7827C1019.45 30.7827 1013.55 32.4659 1008.52 35.8324C1003.49 39.1562 999.59 44.0142 996.82 50.4062C994.05 56.7557 992.665 64.4687 992.665 73.5455C992.665 82.8778 994.05 90.7187 996.82 97.0682C999.632 103.418 1003.55 108.212 1008.58 111.45C1013.61 114.689 1019.43 116.308 1026.03 116.308C1029.74 116.308 1033.17 115.818 1036.32 114.838C1039.52 113.858 1042.35 112.43 1044.82 110.555C1047.3 108.638 1049.34 106.315 1050.96 103.588C1052.62 100.861 1053.77 97.75 1054.41 94.2557L1082.41 94.3835C1081.69 100.392 1079.87 106.188 1076.98 111.77C1074.12 117.31 1070.26 122.274 1065.41 126.663C1060.59 131.01 1054.84 134.462 1048.15 137.018C1041.5 139.533 1033.98 140.79 1025.58 140.79C1013.91 140.79 1003.47 138.148 994.263 132.864C985.101 127.58 977.857 119.93 972.53 109.916C967.246 99.902 964.604 87.7784 964.604 73.5455C964.604 59.2699 967.289 47.125 972.658 37.1108C978.027 27.0966 985.314 19.4687 994.519 14.2273C1003.72 8.94318 1014.08 6.30113 1025.58 6.30113C1033.17 6.30113 1040.2 7.36647 1046.68 9.49716C1053.2 11.6278 1058.97 14.7386 1064 18.8295C1069.03 22.8778 1073.12 27.8423 1076.27 33.723C1079.47 39.6037 1081.51 46.3366 1082.41 53.9219ZM1101.75 139V40.8182H1128.98V139H1101.75ZM1115.42 28.1619C1111.38 28.1619 1107.9 26.8196 1105.01 24.1349C1102.15 21.4077 1100.72 18.1477 1100.72 14.3551C1100.72 10.6051 1102.15 7.38778 1105.01 4.70312C1107.9 1.97585 1111.38 0.612209 1115.42 0.612209C1119.47 0.612209 1122.92 1.97585 1125.78 4.70312C1128.68 7.38778 1130.13 10.6051 1130.13 14.3551C1130.13 18.1477 1128.68 21.4077 1125.78 24.1349C1122.92 26.8196 1119.47 28.1619 1115.42 28.1619ZM1150.79 139V40.8182H1177.19V57.9489H1178.21C1180 51.8551 1183 47.2528 1187.22 44.142C1191.44 40.9886 1196.3 39.4119 1201.8 39.4119C1203.16 39.4119 1204.63 39.4972 1206.21 39.6676C1207.78 39.8381 1209.17 40.0724 1210.36 40.3707V64.5327C1209.08 64.1491 1207.32 63.8082 1205.06 63.5099C1202.8 63.2116 1200.73 63.0625 1198.86 63.0625C1194.85 63.0625 1191.27 63.9361 1188.12 65.6832C1185.01 67.3878 1182.54 69.7741 1180.7 72.8423C1178.91 75.9105 1178.02 79.4474 1178.02 83.4531V139H1150.79ZM1264.23 140.918C1254.17 140.918 1245.52 138.787 1238.28 134.526C1231.08 130.222 1225.54 124.256 1221.66 116.628C1217.82 109 1215.91 100.222 1215.91 90.2926C1215.91 80.2358 1217.85 71.4148 1221.72 63.8295C1225.64 56.2017 1231.21 50.2571 1238.41 45.9957C1245.61 41.6918 1254.17 39.5398 1264.1 39.5398C1272.67 39.5398 1280.17 41.0952 1286.6 44.206C1293.04 47.3168 1298.13 51.6847 1301.88 57.3097C1305.63 62.9347 1307.7 69.5398 1308.08 77.125H1282.38C1281.66 72.2244 1279.74 68.2827 1276.63 65.2997C1273.56 62.2741 1269.54 60.7614 1264.55 60.7614C1260.33 60.7614 1256.65 61.9119 1253.49 64.2131C1250.38 66.4716 1247.95 69.7741 1246.21 74.1207C1244.46 78.4673 1243.58 83.7301 1243.58 89.9091C1243.58 96.1733 1244.44 101.5 1246.14 105.889C1247.89 110.278 1250.34 113.624 1253.49 115.925C1256.65 118.226 1260.33 119.376 1264.55 119.376C1267.66 119.376 1270.45 118.737 1272.92 117.459C1275.44 116.18 1277.51 114.327 1279.12 111.898C1280.79 109.426 1281.87 106.464 1282.38 103.013H1308.08C1307.65 110.513 1305.61 117.118 1301.94 122.828C1298.32 128.496 1293.31 132.928 1286.92 136.124C1280.53 139.32 1272.97 140.918 1264.23 140.918ZM1352.75 8.09091V139H1325.51V8.09091H1352.75ZM1419.3 140.918C1409.2 140.918 1400.51 138.872 1393.22 134.781C1385.98 130.648 1380.4 124.81 1376.48 117.267C1372.56 109.682 1370.59 100.712 1370.59 90.3565C1370.59 80.2571 1372.56 71.3935 1376.48 63.7656C1380.4 56.1378 1385.91 50.1932 1393.03 45.9318C1400.19 41.6705 1408.58 39.5398 1418.22 39.5398C1424.69 39.5398 1430.72 40.5838 1436.31 42.6719C1441.93 44.7173 1446.83 47.8068 1451.01 51.9403C1455.23 56.0739 1458.51 61.2727 1460.85 67.5369C1463.19 73.7585 1464.37 81.0455 1464.37 89.3977V96.8764H1381.46V80.0014H1438.73C1438.73 76.081 1437.88 72.608 1436.18 69.5824C1434.47 66.5568 1432.11 64.1918 1429.08 62.4872C1426.1 60.7401 1422.63 59.8665 1418.66 59.8665C1414.53 59.8665 1410.86 60.8253 1407.67 62.7429C1404.52 64.6179 1402.04 67.1534 1400.25 70.3494C1398.46 73.5028 1397.55 77.0185 1397.51 80.8963V96.9403C1397.51 101.798 1398.4 105.996 1400.19 109.533C1402.02 113.07 1404.6 115.797 1407.92 117.714C1411.25 119.632 1415.19 120.591 1419.75 120.591C1422.78 120.591 1425.55 120.165 1428.06 119.312C1430.57 118.46 1432.73 117.182 1434.52 115.477C1436.31 113.773 1437.67 111.685 1438.61 109.213L1463.79 110.875C1462.51 116.926 1459.89 122.21 1455.93 126.727C1452.01 131.202 1446.94 134.696 1440.72 137.21C1434.54 139.682 1427.4 140.918 1419.3 140.918Z" fill="url(#paint0_linear_954_1710)"/>
<defs>
<linearGradient id="paint0_linear_954_1710" x1="186.106" y1="74" x2="199.497" y2="341.151" gradientUnits="userSpaceOnUse">
<stop/>
<stop offset="0.658654" stop-color="#DF496A"/>
<stop offset="1" stop-color="#BF435E"/>
</linearGradient>
</defs>
</svg>
