<svg width="111" height="111" viewBox="0 0 111 111" fill="none" xmlns="http://www.w3.org/2000/svg">
<rect x="0.5" y="0.5" width="110" height="110" rx="55" fill="#1B1A1A"/>
<rect x="0.5" y="0.5" width="110" height="110" rx="55" stroke="url(#paint0_linear_1148_1427)"/>
<path d="M56 31C69.8075 31 81 42.1925 81 56C81 69.8075 69.8075 81 56 81C42.1925 81 31 69.8075 31 56C31 42.1925 42.1925 31 56 31ZM56 36C50.6957 36 45.6086 38.1071 41.8579 41.8579C38.1071 45.6086 36 50.6957 36 56C36 61.3043 38.1071 66.3914 41.8579 70.1421C45.6086 73.8929 50.6957 76 56 76C61.3043 76 66.3914 73.8929 70.1421 70.1421C73.8929 66.3914 76 61.3043 76 56C76 50.6957 73.8929 45.6086 70.1421 41.8579C66.3914 38.1071 61.3043 36 56 36ZM56 66C56.663 66 57.2989 66.2634 57.7678 66.7322C58.2366 67.2011 58.5 67.837 58.5 68.5C58.5 69.163 58.2366 69.7989 57.7678 70.2678C57.2989 70.7366 56.663 71 56 71C55.337 71 54.7011 70.7366 54.2322 70.2678C53.7634 69.7989 53.5 69.163 53.5 68.5C53.5 67.837 53.7634 67.2011 54.2322 66.7322C54.7011 66.2634 55.337 66 56 66ZM56 42.25C58.1057 42.2501 60.1457 42.9834 61.7695 44.324C63.3933 45.6646 64.4995 47.5288 64.8983 49.5964C65.297 51.664 64.9633 53.806 63.9545 55.6543C62.9456 57.5026 61.3247 58.9419 59.37 59.725C59.0805 59.8315 58.8195 60.0034 58.6075 60.2275C58.4975 60.3525 58.48 60.5125 58.4825 60.6775L58.5 61C58.4993 61.6372 58.2553 62.2501 57.8179 62.7134C57.3805 63.1768 56.7826 63.4556 56.1465 63.4929C55.5104 63.5303 54.8841 63.3233 54.3954 62.9143C53.9068 62.5054 53.5928 61.9252 53.5175 61.2925L53.5 61V60.375C53.5 57.4925 55.825 55.7625 57.51 55.085C58.1958 54.8111 58.794 54.3557 59.2405 53.7675C59.6869 53.1793 59.9647 52.4806 60.044 51.7464C60.1233 51.0122 60.0011 50.2703 59.6906 49.6004C59.38 48.9304 58.8928 48.3577 58.2813 47.9437C57.6699 47.5297 56.9571 47.2901 56.2198 47.2507C55.4824 47.2112 54.7482 47.3733 54.096 47.7197C53.4438 48.066 52.8983 48.5835 52.518 49.2164C52.1377 49.8494 51.937 50.5741 51.9375 51.3125C51.9375 51.9755 51.6741 52.6114 51.2053 53.0803C50.7364 53.5491 50.1005 53.8125 49.4375 53.8125C48.7745 53.8125 48.1386 53.5491 47.6697 53.0803C47.2009 52.6114 46.9375 51.9755 46.9375 51.3125C46.9375 48.909 47.8923 46.6039 49.5918 44.9043C51.2914 43.2048 53.5965 42.25 56 42.25Z" fill="url(#paint1_linear_1148_1427)"/>
<defs>
<linearGradient id="paint0_linear_1148_1427" x1="6.80518" y1="5.90874" x2="164.324" y2="98.42" gradientUnits="userSpaceOnUse">
<stop stop-color="#EFE3E6"/>
<stop offset="0.662143" stop-color="#DF496A"/>
<stop offset="1" stop-color="#BF435E"/>
</linearGradient>
<linearGradient id="paint1_linear_1148_1427" x1="34.0654" y1="33.6616" x2="86.196" y2="63.7169" gradientUnits="userSpaceOnUse">
<stop stop-color="#FF4F76"/>
<stop offset="1" stop-color="#BF435E"/>
</linearGradient>
</defs>
</svg>
