<svg width="24" height="24" viewBox="0 0 24 24" fill="none" xmlns="http://www.w3.org/2000/svg">
<path d="M2.07006 4.59988C2.87006 1.13988 8.08006 1.13988 8.87006 4.59988C9.34006 6.62988 8.05006 8.34988 6.93006 9.41988C6.11006 10.1999 4.82006 10.1899 4.00006 9.41988C2.89006 8.34988 1.60006 6.62988 2.07006 4.59988Z" stroke="url(#paint0_linear_704_775)" stroke-width="1.5"/>
<path d="M15.07 16.5999C15.87 13.1399 21.11 13.1399 21.91 16.5999C22.38 18.6299 21.09 20.3499 19.96 21.4199C19.14 22.1999 17.84 22.1899 17.02 21.4199C15.89 20.3499 14.6 18.6299 15.07 16.5999Z" stroke="url(#paint1_linear_704_775)" stroke-width="1.5"/>
<path d="M11.9999 5H14.6799C16.5299 5 17.3899 7.29 15.9999 8.51L8.00995 15.5C6.61995 16.71 7.47994 19 9.31994 19H11.9999" stroke="url(#paint2_linear_704_775)" stroke-width="1.5" stroke-linecap="round" stroke-linejoin="round"/>
<path d="M5.48622 5.5H5.49777" stroke="url(#paint3_linear_704_775)" stroke-width="2" stroke-linecap="round" stroke-linejoin="round"/>
<path d="M18.4862 17.5H18.4978" stroke="url(#paint4_linear_704_775)" stroke-width="2" stroke-linecap="round" stroke-linejoin="round"/>
<defs>
<linearGradient id="paint0_linear_704_775" x1="2.39978" y1="2.43054" x2="10.1489" y2="6.34086" gradientUnits="userSpaceOnUse">
<stop stop-color="#FF4F76"/>
<stop offset="1" stop-color="#BF435E"/>
</linearGradient>
<linearGradient id="paint1_linear_704_775" x1="15.4022" y1="14.4305" x2="23.1775" y2="18.3764" gradientUnits="userSpaceOnUse">
<stop stop-color="#FF4F76"/>
<stop offset="1" stop-color="#BF435E"/>
</linearGradient>
<linearGradient id="paint2_linear_704_775" x1="7.89663" y1="5.74525" x2="19.2213" y2="10.1125" gradientUnits="userSpaceOnUse">
<stop stop-color="#FF4F76"/>
<stop offset="1" stop-color="#BF435E"/>
</linearGradient>
<linearGradient id="paint3_linear_704_775" x1="4.9288" y1="5.05323" x2="6.081" y2="5.90604" gradientUnits="userSpaceOnUse">
<stop stop-color="#FF4F76"/>
<stop offset="1" stop-color="#BF435E"/>
</linearGradient>
<linearGradient id="paint4_linear_704_775" x1="17.9288" y1="17.0532" x2="19.081" y2="17.906" gradientUnits="userSpaceOnUse">
<stop stop-color="#FF4F76"/>
<stop offset="1" stop-color="#BF435E"/>
</linearGradient>
</defs>
</svg>
