<svg width="1440" height="1743" viewBox="0 0 1440 1743" fill="none" xmlns="http://www.w3.org/2000/svg">
<g clip-path="url(#clip0_1138_1260)">
<rect width="1440" height="657" transform="translate(0 40)" fill="#0E0E0E"/>
<g filter="url(#filter0_f_1138_1260)">
<circle cx="730" cy="362" r="193" fill="url(#paint0_linear_1138_1260)"/>
</g>
<path d="M436.21 373.864H442.483L445.636 377.92L448.739 381.534L454.585 388.864H447.699L443.676 383.92L441.614 380.989L436.21 373.864ZM455.114 368.545C455.114 372.352 454.392 375.591 452.949 378.261C451.517 380.932 449.563 382.972 447.085 384.381C444.619 385.778 441.847 386.477 438.767 386.477C435.665 386.477 432.881 385.773 430.415 384.364C427.949 382.955 426 380.915 424.568 378.244C423.136 375.574 422.42 372.341 422.42 368.545C422.42 364.739 423.136 361.5 424.568 358.83C426 356.159 427.949 354.125 430.415 352.727C432.881 351.318 435.665 350.614 438.767 350.614C441.847 350.614 444.619 351.318 447.085 352.727C449.563 354.125 451.517 356.159 452.949 358.83C454.392 361.5 455.114 364.739 455.114 368.545ZM447.631 368.545C447.631 366.08 447.261 364 446.523 362.307C445.795 360.614 444.767 359.33 443.438 358.455C442.108 357.58 440.551 357.142 438.767 357.142C436.983 357.142 435.426 357.58 434.097 358.455C432.767 359.33 431.733 360.614 430.994 362.307C430.267 364 429.903 366.08 429.903 368.545C429.903 371.011 430.267 373.091 430.994 374.784C431.733 376.477 432.767 377.761 434.097 378.636C435.426 379.511 436.983 379.949 438.767 379.949C440.551 379.949 442.108 379.511 443.438 378.636C444.767 377.761 445.795 376.477 446.523 374.784C447.261 373.091 447.631 371.011 447.631 368.545ZM464.629 386H456.72L468.771 351.091H478.283L490.317 386H482.408L473.663 359.068H473.391L464.629 386ZM464.135 372.278H482.817V378.04H464.135V372.278ZM523.679 363.312H516.213C516.077 362.347 515.798 361.489 515.378 360.739C514.957 359.977 514.418 359.33 513.759 358.795C513.099 358.261 512.338 357.852 511.474 357.568C510.622 357.284 509.696 357.142 508.696 357.142C506.889 357.142 505.315 357.591 503.974 358.489C502.634 359.375 501.594 360.67 500.855 362.375C500.116 364.068 499.747 366.125 499.747 368.545C499.747 371.034 500.116 373.125 500.855 374.818C501.605 376.511 502.651 377.79 503.991 378.653C505.332 379.517 506.884 379.949 508.645 379.949C509.634 379.949 510.548 379.818 511.389 379.557C512.241 379.295 512.997 378.915 513.656 378.415C514.315 377.903 514.861 377.284 515.293 376.557C515.736 375.83 516.043 375 516.213 374.068L523.679 374.102C523.486 375.705 523.003 377.25 522.23 378.739C521.469 380.216 520.44 381.54 519.145 382.71C517.861 383.869 516.327 384.79 514.543 385.472C512.77 386.142 510.764 386.477 508.526 386.477C505.412 386.477 502.628 385.773 500.173 384.364C497.73 382.955 495.798 380.915 494.378 378.244C492.969 375.574 492.264 372.341 492.264 368.545C492.264 364.739 492.98 361.5 494.412 358.83C495.844 356.159 497.787 354.125 500.241 352.727C502.696 351.318 505.457 350.614 508.526 350.614C510.548 350.614 512.423 350.898 514.151 351.466C515.889 352.034 517.429 352.864 518.77 353.955C520.111 355.034 521.202 356.358 522.043 357.926C522.895 359.494 523.44 361.29 523.679 363.312ZM570.882 363.312H563.416C563.28 362.347 563.001 361.489 562.581 360.739C562.161 359.977 561.621 359.33 560.962 358.795C560.303 358.261 559.541 357.852 558.678 357.568C557.825 357.284 556.899 357.142 555.899 357.142C554.092 357.142 552.518 357.591 551.178 358.489C549.837 359.375 548.797 360.67 548.058 362.375C547.32 364.068 546.95 366.125 546.95 368.545C546.95 371.034 547.32 373.125 548.058 374.818C548.808 376.511 549.854 377.79 551.195 378.653C552.536 379.517 554.087 379.949 555.848 379.949C556.837 379.949 557.751 379.818 558.592 379.557C559.445 379.295 560.2 378.915 560.859 378.415C561.518 377.903 562.064 377.284 562.496 376.557C562.939 375.83 563.246 375 563.416 374.068L570.882 374.102C570.689 375.705 570.206 377.25 569.433 378.739C568.672 380.216 567.643 381.54 566.348 382.71C565.064 383.869 563.53 384.79 561.746 385.472C559.973 386.142 557.967 386.477 555.729 386.477C552.615 386.477 549.831 385.773 547.376 384.364C544.933 382.955 543.001 380.915 541.581 378.244C540.172 375.574 539.467 372.341 539.467 368.545C539.467 364.739 540.183 361.5 541.615 358.83C543.047 356.159 544.99 354.125 547.445 352.727C549.899 351.318 552.661 350.614 555.729 350.614C557.751 350.614 559.626 350.898 561.354 351.466C563.092 352.034 564.632 352.864 565.973 353.955C567.314 355.034 568.405 356.358 569.246 357.926C570.098 359.494 570.643 361.29 570.882 363.312ZM608.254 368.545C608.254 372.352 607.533 375.591 606.089 378.261C604.658 380.932 602.703 382.972 600.226 384.381C597.76 385.778 594.987 386.477 591.908 386.477C588.805 386.477 586.021 385.773 583.555 384.364C581.089 382.955 579.141 380.915 577.709 378.244C576.277 375.574 575.561 372.341 575.561 368.545C575.561 364.739 576.277 361.5 577.709 358.83C579.141 356.159 581.089 354.125 583.555 352.727C586.021 351.318 588.805 350.614 591.908 350.614C594.987 350.614 597.76 351.318 600.226 352.727C602.703 354.125 604.658 356.159 606.089 358.83C607.533 361.5 608.254 364.739 608.254 368.545ZM600.771 368.545C600.771 366.08 600.402 364 599.663 362.307C598.936 360.614 597.908 359.33 596.578 358.455C595.249 357.58 593.692 357.142 591.908 357.142C590.124 357.142 588.567 357.58 587.237 358.455C585.908 359.33 584.874 360.614 584.135 362.307C583.408 364 583.044 366.08 583.044 368.545C583.044 371.011 583.408 373.091 584.135 374.784C584.874 376.477 585.908 377.761 587.237 378.636C588.567 379.511 590.124 379.949 591.908 379.949C593.692 379.949 595.249 379.511 596.578 378.636C597.908 377.761 598.936 376.477 599.663 374.784C600.402 373.091 600.771 371.011 600.771 368.545ZM613.722 351.091H622.824L632.438 374.545H632.847L642.46 351.091H651.562V386H644.403V363.278H644.114L635.08 385.83H630.205L621.17 363.193H620.881V386H613.722V351.091ZM657.643 351.091H666.746L676.359 374.545H676.768L686.382 351.091H695.484V386H688.325V363.278H688.036L679.001 385.83H674.126L665.092 363.193H664.803V386H657.643V351.091ZM723.128 351.091H730.509V373.761C730.509 376.307 729.901 378.534 728.685 380.443C727.48 382.352 725.793 383.841 723.622 384.909C721.452 385.966 718.923 386.494 716.037 386.494C713.139 386.494 710.605 385.966 708.435 384.909C706.264 383.841 704.577 382.352 703.372 380.443C702.168 378.534 701.565 376.307 701.565 373.761V351.091H708.946V373.131C708.946 374.46 709.236 375.642 709.815 376.676C710.406 377.71 711.236 378.523 712.304 379.114C713.372 379.705 714.616 380 716.037 380C717.469 380 718.713 379.705 719.77 379.114C720.838 378.523 721.662 377.71 722.241 376.676C722.832 375.642 723.128 374.46 723.128 373.131V351.091ZM765.78 351.091V386H759.405L744.217 364.028H743.962V386H736.581V351.091H743.058L758.126 373.045H758.433V351.091H765.78ZM779.259 351.091V386H771.878V351.091H779.259ZM784.001 357.176V351.091H812.672V357.176H801.984V386H794.689V357.176H784.001ZM815.348 351.091H823.615L831.575 366.125H831.916L839.876 351.091H848.143L835.411 373.659V386H828.081V373.659L815.348 351.091ZM863.284 386V351.091H877.057C879.693 351.091 881.943 351.562 883.807 352.506C885.682 353.437 887.108 354.761 888.085 356.477C889.074 358.182 889.568 360.187 889.568 362.494C889.568 364.812 889.068 366.807 888.068 368.477C887.068 370.136 885.619 371.409 883.722 372.295C881.835 373.182 879.551 373.625 876.869 373.625H867.648V367.693H875.676C877.085 367.693 878.256 367.5 879.188 367.114C880.119 366.727 880.813 366.148 881.267 365.375C881.733 364.602 881.966 363.642 881.966 362.494C881.966 361.335 881.733 360.358 881.267 359.562C880.813 358.767 880.114 358.165 879.17 357.756C878.239 357.335 877.063 357.125 875.642 357.125H870.665V386H863.284ZM882.136 370.114L890.812 386H882.665L874.176 370.114H882.136ZM916.347 351.091H923.727V373.761C923.727 376.307 923.119 378.534 921.903 380.443C920.699 382.352 919.011 383.841 916.841 384.909C914.67 385.966 912.142 386.494 909.256 386.494C906.358 386.494 903.824 385.966 901.653 384.909C899.483 383.841 897.795 382.352 896.591 380.443C895.386 378.534 894.784 376.307 894.784 373.761V351.091H902.165V373.131C902.165 374.46 902.455 375.642 903.034 376.676C903.625 377.71 904.455 378.523 905.523 379.114C906.591 379.705 907.835 380 909.256 380C910.688 380 911.932 379.705 912.989 379.114C914.057 378.523 914.881 377.71 915.46 376.676C916.051 375.642 916.347 374.46 916.347 373.131V351.091ZM929.8 386V351.091H937.18V379.915H952.146V386H929.8ZM957.034 386V351.091H980.557V357.176H964.415V365.494H979.347V371.58H964.415V379.915H980.625V386H957.034ZM1005.36 361.131C1005.23 359.756 1004.64 358.687 1003.61 357.926C1002.57 357.165 1001.17 356.784 999.396 356.784C998.192 356.784 997.175 356.955 996.345 357.295C995.516 357.625 994.879 358.085 994.436 358.676C994.004 359.267 993.788 359.938 993.788 360.688C993.766 361.312 993.896 361.858 994.18 362.324C994.476 362.79 994.879 363.193 995.391 363.534C995.902 363.864 996.493 364.153 997.163 364.403C997.834 364.642 998.55 364.847 999.311 365.017L1002.45 365.767C1003.97 366.108 1005.37 366.562 1006.64 367.131C1007.91 367.699 1009.02 368.398 1009.95 369.227C1010.88 370.057 1011.6 371.034 1012.11 372.159C1012.63 373.284 1012.9 374.574 1012.91 376.028C1012.9 378.165 1012.36 380.017 1011.28 381.585C1010.21 383.142 1008.66 384.352 1006.64 385.216C1004.63 386.068 1002.2 386.494 999.362 386.494C996.544 386.494 994.089 386.062 991.999 385.199C989.919 384.335 988.294 383.057 987.124 381.364C985.964 379.659 985.357 377.551 985.3 375.04H992.442C992.521 376.21 992.857 377.187 993.447 377.972C994.05 378.744 994.851 379.33 995.851 379.727C996.862 380.114 998.004 380.307 999.277 380.307C1000.53 380.307 1001.61 380.125 1002.53 379.761C1003.46 379.398 1004.19 378.892 1004.7 378.244C1005.21 377.597 1005.46 376.852 1005.46 376.011C1005.46 375.227 1005.23 374.568 1004.77 374.034C1004.31 373.5 1003.64 373.045 1002.75 372.67C1001.88 372.295 1000.81 371.955 999.533 371.648L995.732 370.693C992.788 369.977 990.464 368.858 988.76 367.335C987.055 365.812 986.209 363.761 986.22 361.182C986.209 359.068 986.771 357.222 987.908 355.642C989.055 354.062 990.629 352.83 992.629 351.943C994.629 351.057 996.902 350.614 999.447 350.614C1002.04 350.614 1004.3 351.057 1006.23 351.943C1008.17 352.83 1009.69 354.062 1010.77 355.642C1011.85 357.222 1012.4 359.051 1012.44 361.131H1005.36Z" fill="url(#paint1_linear_1138_1260)"/>
<g filter="url(#filter1_i_1138_1260)">
<circle cx="720" cy="621" r="27" fill="url(#paint2_linear_1138_1260)"/>
</g>
<circle cx="720" cy="621" r="26.5" stroke="black"/>
<path d="M718.939 634.061C719.525 634.646 720.475 634.646 721.061 634.061L730.607 624.515C731.192 623.929 731.192 622.979 730.607 622.393C730.021 621.808 729.071 621.808 728.485 622.393L720 630.879L711.515 622.393C710.929 621.808 709.979 621.808 709.393 622.393C708.808 622.979 708.808 623.929 709.393 624.515L718.939 634.061ZM720 612H718.5V633H720H721.5V612H720Z" fill="white"/>
</g>
<g filter="url(#filter2_d_1138_1260)">
<mask id="path-6-inside-1_1138_1260" fill="white">
<path d="M-109 914C-109 694.136 -21.6592 483.276 133.808 327.809C289.276 172.341 500.135 85 720 85C939.864 85 1150.72 172.341 1306.19 327.808C1461.66 483.276 1549 694.135 1549 914L720 914L-109 914Z"/>
</mask>
<path d="M-109 914C-109 694.136 -21.6592 483.276 133.808 327.809C289.276 172.341 500.135 85 720 85C939.864 85 1150.72 172.341 1306.19 327.808C1461.66 483.276 1549 694.135 1549 914L720 914L-109 914Z" stroke="#DF496A" stroke-opacity="0.2" stroke-width="2" shape-rendering="crispEdges" mask="url(#path-6-inside-1_1138_1260)"/>
</g>
<defs>
<filter id="filter0_f_1138_1260" x="137" y="-231" width="1186" height="1186" filterUnits="userSpaceOnUse" color-interpolation-filters="sRGB">
<feFlood flood-opacity="0" result="BackgroundImageFix"/>
<feBlend mode="normal" in="SourceGraphic" in2="BackgroundImageFix" result="shape"/>
<feGaussianBlur stdDeviation="200" result="effect1_foregroundBlur_1138_1260"/>
</filter>
<filter id="filter1_i_1138_1260" x="693" y="594" width="58" height="58" filterUnits="userSpaceOnUse" color-interpolation-filters="sRGB">
<feFlood flood-opacity="0" result="BackgroundImageFix"/>
<feBlend mode="normal" in="SourceGraphic" in2="BackgroundImageFix" result="shape"/>
<feColorMatrix in="SourceAlpha" type="matrix" values="0 0 0 0 0 0 0 0 0 0 0 0 0 0 0 0 0 0 127 0" result="hardAlpha"/>
<feMorphology radius="1" operator="erode" in="SourceAlpha" result="effect1_innerShadow_1138_1260"/>
<feOffset dx="4" dy="4"/>
<feGaussianBlur stdDeviation="2"/>
<feComposite in2="hardAlpha" operator="arithmetic" k2="-1" k3="1"/>
<feColorMatrix type="matrix" values="0 0 0 0 0.131811 0 0 0 0 0.131811 0 0 0 0 0.131811 0 0 0 0.1 0"/>
<feBlend mode="normal" in2="shape" result="effect1_innerShadow_1138_1260"/>
</filter>
<filter id="filter2_d_1138_1260" x="-218" y="-24" width="1884" height="1055" filterUnits="userSpaceOnUse" color-interpolation-filters="sRGB">
<feFlood flood-opacity="0" result="BackgroundImageFix"/>
<feColorMatrix in="SourceAlpha" type="matrix" values="0 0 0 0 0 0 0 0 0 0 0 0 0 0 0 0 0 0 127 0" result="hardAlpha"/>
<feMorphology radius="13" operator="dilate" in="SourceAlpha" result="effect1_dropShadow_1138_1260"/>
<feOffset dx="4" dy="4"/>
<feGaussianBlur stdDeviation="50"/>
<feComposite in2="hardAlpha" operator="out"/>
<feColorMatrix type="matrix" values="0 0 0 0 1 0 0 0 0 0.309804 0 0 0 0 0.462745 0 0 0 0.43 0"/>
<feBlend mode="normal" in2="BackgroundImageFix" result="effect1_dropShadow_1138_1260"/>
<feBlend mode="normal" in="SourceGraphic" in2="effect1_dropShadow_1138_1260" result="shape"/>
</filter>
<linearGradient id="paint0_linear_1138_1260" x1="730" y1="169" x2="730" y2="555" gradientUnits="userSpaceOnUse">
<stop stop-color="#0E7BF8"/>
<stop offset="0.863541" stop-color="#0E7BF8" stop-opacity="0"/>
</linearGradient>
<linearGradient id="paint1_linear_1138_1260" x1="456.907" y1="340.407" x2="484.408" y2="489.544" gradientUnits="userSpaceOnUse">
<stop stop-color="#FF4F76"/>
<stop offset="1" stop-color="#BF435E"/>
</linearGradient>
<linearGradient id="paint2_linear_1138_1260" x1="696.311" y1="596.875" x2="772.941" y2="641.88" gradientUnits="userSpaceOnUse">
<stop stop-color="#EFE3E6"/>
<stop offset="0.662143" stop-color="#DF496A"/>
<stop offset="1" stop-color="#BF435E"/>
</linearGradient>
<clipPath id="clip0_1138_1260">
<rect width="1440" height="657" fill="white" transform="translate(0 40)"/>
</clipPath>
</defs>
</svg>
