<svg width="24" height="24" viewBox="0 0 24 24" fill="none" xmlns="http://www.w3.org/2000/svg">
<path d="M17 10H19C21 10 22 9 22 7V5C22 3 21 2 19 2H17C15 2 14 3 14 5V7C14 9 15 10 17 10Z" stroke="url(#paint0_linear_704_903)" stroke-width="1.5" stroke-miterlimit="10" stroke-linecap="round" stroke-linejoin="round"/>
<path d="M5 22H7C9 22 10 21 10 19V17C10 15 9 14 7 14H5C3 14 2 15 2 17V19C2 21 3 22 5 22Z" stroke="url(#paint1_linear_704_903)" stroke-width="1.5" stroke-miterlimit="10" stroke-linecap="round" stroke-linejoin="round"/>
<path d="M6 10C8.20914 10 10 8.20914 10 6C10 3.79086 8.20914 2 6 2C3.79086 2 2 3.79086 2 6C2 8.20914 3.79086 10 6 10Z" stroke="url(#paint2_linear_704_903)" stroke-width="1.5" stroke-miterlimit="10" stroke-linecap="round" stroke-linejoin="round"/>
<path d="M18 22C20.2091 22 22 20.2091 22 18C22 15.7909 20.2091 14 18 14C15.7909 14 14 15.7909 14 18C14 20.2091 15.7909 22 18 22Z" stroke="url(#paint3_linear_704_903)" stroke-width="1.5" stroke-miterlimit="10" stroke-linecap="round" stroke-linejoin="round"/>
<defs>
<linearGradient id="paint0_linear_704_903" x1="14.4905" y1="2.42586" x2="22.8314" y2="7.2347" gradientUnits="userSpaceOnUse">
<stop stop-color="#FF4F76"/>
<stop offset="1" stop-color="#BF435E"/>
</linearGradient>
<linearGradient id="paint1_linear_704_903" x1="2.49046" y1="14.4259" x2="10.8314" y2="19.2347" gradientUnits="userSpaceOnUse">
<stop stop-color="#FF4F76"/>
<stop offset="1" stop-color="#BF435E"/>
</linearGradient>
<linearGradient id="paint2_linear_704_903" x1="2.49046" y1="2.42586" x2="10.8314" y2="7.2347" gradientUnits="userSpaceOnUse">
<stop stop-color="#FF4F76"/>
<stop offset="1" stop-color="#BF435E"/>
</linearGradient>
<linearGradient id="paint3_linear_704_903" x1="14.4905" y1="14.4259" x2="22.8314" y2="19.2347" gradientUnits="userSpaceOnUse">
<stop stop-color="#FF4F76"/>
<stop offset="1" stop-color="#BF435E"/>
</linearGradient>
</defs>
</svg>
