<svg width="40" height="52" viewBox="0 0 40 52" fill="none" xmlns="http://www.w3.org/2000/svg">
<path d="M13.5858 0.585785C14.3668 -0.195263 15.6332 -0.195263 16.4142 0.585785L29.1421 13.3137C29.9232 14.0948 29.9232 15.3611 29.1421 16.1421C28.3611 16.9232 27.0948 16.9232 26.3137 16.1421L15 4.82843L3.68629 16.1421C2.90524 16.9232 1.63891 16.9232 0.857864 16.1421C0.0768166 15.3611 0.0768166 14.0948 0.857864 13.3137L13.5858 0.585785ZM38 44.1842L39.5362 45.4648C34.5991 51.387 28.0167 53.1489 22.5031 51.3019C16.9913 49.4554 13 44.1438 13 36.9467H15H17C17 42.5703 20.0266 46.2538 23.7737 47.509C27.5191 48.7638 32.4367 47.7341 36.4638 42.9035L38 44.1842ZM15 36.9467H13V2H15H17V36.9467H15Z" fill="url(#paint0_linear_960_2864)"/>
<defs>
<linearGradient id="paint0_linear_960_2864" x1="36.7757" y1="47.0572" x2="3.998" y2="19.8154" gradientUnits="userSpaceOnUse">
<stop stop-color="#FF4F76"/>
<stop offset="1" stop-color="#BF435E"/>
</linearGradient>
</defs>
</svg>
